<?xml version="1.0" encoding="utf-8"?>
<!-- Generator: Adobe Adobe Illustrator 29.2.0, SVG Export Plug-In . SVG Version: 6.00 Build 0)  -->
<svg version="1.1" id="Layer_1" xmlns="http://www.w3.org/2000/svg" xmlns:xlink="http://www.w3.org/1999/xlink" x="0px" y="0px"
	 viewBox="0 0 2083.3 477.4" style="enable-background:new 0 0 2083.3 477.4;" xml:space="preserve">
<style type="text/css">
	.st0{fill:#FEFEFE;}
	.st1{fill:#056537;}
	.st2{fill:#3D4040;}
	.st3{fill:#3C4040;}
	.st4{fill:#3D3F40;}
	.st5{fill:#3E3F40;}
	.st6{fill:#3A4240;}
	.st7{fill:#394240;}
	.st8{fill:#3B4140;}
	.st9{fill:#3A4140;}
	.st10{fill:#38433F;}
	.st11{fill:#37433F;}
	.st12{fill:#37443F;}
	.st13{fill:#414947;}
	.st14{fill:#404846;}
	.st15{fill:#39433F;}
	.st16{fill:#39423F;}
	.st17{fill:#36443F;}
	.st18{fill:#2B4C3D;}
	.st19{fill:#35453F;}
	.st20{fill:#FDB040;}
</style>
<path class="st0" d="M16.1,8.3h2067.3v469H16.1V8.3z"/>
<path class="st1" d="M1501.3,24.4h38l43,107l7,18l2,1l3-10l44-110l3-6h38v175h-35v-84h-2l-3,10l-12,30l-17,42l-1,2h-39l-32-80l-1-2
	l-1,82h-35V24.4z"/>
<path class="st1" d="M1059.3,24.4h61l17,4l13,6l11,7l12,11l8,10l7,12l6,18l2,14v10l-2,15l-6,18l-9,15l-11,12l-8,7l-14,8l-16,6l-10,2
	h-61V24.4z"/>
<path class="st1" d="M1906.3,24.4h42l14,23l13,22l39,65l2,3l1-113h36v174l-1,1h-41l-45-75l-17-28l-6-10l-2-1v114h-35V24.4z"/>
<path class="st1" d="M1775.3,24.4h38l7,18l19,53l20,55l17,47v2h-37l-4-9l-14-38v-2h-54l-3,10l-14,39h-38l3-10l20-55l23-64
	L1775.3,24.4z"/>
<path class="st1" d="M661.3,24.4h106v35l-70,1v33l70,1v35l-70,1v33l70,1v35h-106V24.4z"/>
<path class="st1" d="M802.3,24.4h35l1,114l4,11l7,8l10,5l3,1h13l9-3l9-7l6-12l1-4l1-113h35v117l-4,16l-7,13l-8,10l-11,9l-12,6l-9,3
	l-6,1h-21l-11-3l-12-5l-13-10l-8-9l-6-10l-5-15l-1-6V24.4z"/>
<path class="st1" d="M521.3,24.4h105l1,1v33l-1,1h-70v35h70l1,1v34h-71v70h-35V24.4z"/>
<path class="st2" d="M946.3,234.4h41l10,2l10,5l10,9l6,11l2,8v14l-3,10l-2,4l1,4l7,8l4,8l2,8v12l-3,11l-6,10l-7,7l-11,6l-8,2h-54
	v-138L946.3,234.4z"/>
<path class="st3" d="M1194.3,234.4h44l10,2l10,5l10,9l5,9l3,9v16l-4,11l-6,9l-9,8h-2l26,58v3h-30l-18-40l-7-15l-5-1v56h-27l-1-1
	v-137L1194.3,234.4z"/>
<path class="st3" d="M1721.3,234.4h44l13,3l10,6l7,7l7,14l1,5v14l-3,10l-6,10l-9,8l-2,1l1,5l18,40l6,14v2h-30l-16-35l-9-20h-4l-1,55
	h-28v-138L1721.3,234.4z"/>
<path class="st4" d="M1485.3,234.4h29l5,12l18,50l22,61l5,13v3h-29l-9-24l-5-14l-43-1l-3,11l-10,27l-1,1h-29l3-10l18-50l28-77
	L1485.3,234.4z"/>
<path class="st1" d="M1300.3,24.4h35l1,139l63,1v35h-99V24.4z"/>
<path class="st1" d="M1434.3,24.4h35v175h-35V24.4z"/>
<path class="st1" d="M1231.3,24.4h34v175h-34l-1-3v-170L1231.3,24.4z"/>
<path class="st0" d="M1094.3,59.4h21l12,3l11,6l10,9l7,10l4,10l1,5v19l-3,10l-5,10l-9,10l-8,6l-11,5l-9,2h-21V59.4z"/>
<path class="st4" d="M1953.3,234.4h30l10,19l9,18l3-4l16-32l1-1h30l-1,5l-10,19l-24,48l-1,67h-27l-1-66l-11-23l-24-48V234.4z"/>
<path class="st5" d="M521.3,234.4h27v111h50l1,27l-1,1h-77V234.4z"/>
<path class="st3" d="M759.3,234.4h26l1,1v137l-1,1h-27v-138L759.3,234.4z"/>
<path class="st6" d="M1405.3,421.4l8,1l7,4l4,6l1,10l-4,8l-6,5l-3,1h-9l-6-3l-5-6l-2-5l1-10l5-7L1405.3,421.4z"/>
<path class="st7" d="M1066.3,421.4l8,1l6,4l4,5l1,2v11l-4,7l-8,5h-9l-8-4l-5-8v-10l3-6l6-5L1066.3,421.4z"/>
<path class="st0" d="M973.3,317.4h21l7,3l5,6l1,6l-2,7l-6,5l-2,1h-24l-1-2L973.3,317.4z"/>
<path class="st8" d="M795.3,421.4h11l8,3l6,7l2,9l-3,9l-7,6l-3,1h-14V421.4z"/>
<path class="st0" d="M1221.3,262.4h17l6,3l4,5l1,9l-3,6l-5,4l-4,1h-16V262.4z"/>
<path class="st0" d="M1748.3,262.4h17l6,3l4,5l1,9l-4,7l-4,3l-3,1h-17V262.4z"/>
<path class="st9" d="M521.3,421.4h11l6,3l3,6l-1,8l3,5v6l-5,6l-2,1h-15V421.4z"/>
<path class="st6" d="M1105.3,421.4h7l7,10l6,11l2,1v-22h6v35h-8l-10-16l-3-5l-1,21h-6l-1-4v-30L1105.3,421.4z"/>
<path class="st8" d="M1317.3,421.4h7l7,10l6,10v2h2v-22h6v35h-8l-12-20l-2-1v21h-6V421.4z"/>
<path class="st0" d="M973.3,262.4h14l6,3l4,5l1,9l-3,6l-5,4l-4,1h-13l-1-27L973.3,262.4z"/>
<path class="st10" d="M1600.3,421.4l8,1l6,4l-4,5l-6-2l-7,1l-4,5l-1,5l3,6l3,2h8l3-3h-7v-6l1-1h16l-1,9l-5,6l-6,3h-9l-8-4l-4-5l-1-3
	v-10l3-6l6-5L1600.3,421.4z"/>
<path class="st11" d="M1853.3,421.4h12l6,4l2,4l-1,8l-2,3h-2l5,12l1,4h-7l-7-13l-1,13h-7v-34L1853.3,421.4z"/>
<path class="st7" d="M2012.3,421.4h12l5,3l3,3l1,6l-3,6l-1,5l4,9v3h-7l-6-13l-1,12l-1,1h-6V421.4z"/>
<path class="st12" d="M1639.3,421.4h6v14h13v-14h6l1,1v34h-7v-14h-13v14h-7v-34L1639.3,421.4z"/>
<path class="st6" d="M1444.3,421.4h12l6,3l2,3v9l-4,6l5,11v3h-7l-6-13l-1,4v8l-1,1h-6V421.4z"/>
<path class="st0" d="M1793.3,77.4h2l13,36v2h-27l-1-2L1793.3,77.4z"/>
<path class="st8" d="M1514.3,421.4h6v14h13v-13l1-1h6v35h-7v-14l-12,1l-1,13h-6V421.4z"/>
<path class="st13" d="M946.3,421.4h7l12,33v2h-7l-4-9h-10l-4,9h-7l3-10l9-24L946.3,421.4z"/>
<path class="st13" d="M1974.3,421.4h7l5,12l7,20v3h-6l-3-6v-3h-11l-4,9h-7l1-5l10-28L1974.3,421.4z"/>
<path class="st14" d="M573.3,421.4h6l5,12l8,23h-7l-4-9h-10l-4,9h-7l3-11l8-22L573.3,421.4z"/>
<path class="st10" d="M1813.3,421.4h20v7l-13,1l-1,6h14v7l-13,1l-1,6h14v7h-20l-1-1v-33L1813.3,421.4z"/>
<path class="st9" d="M1277.3,421.4h20l1,1v5l-1,1l-13,1l-1,6h14l1,1v5l-1,1l-13,1l-1,6h14l1,1v5l-1,1h-20V421.4z"/>
<path class="st9" d="M755.3,421.4h20v7h-13v7h13l1,2l-1,5h-13v7h13l1,2l-1,5h-20V421.4z"/>
<path class="st15" d="M841.3,421.4h6l1,23l1,4h8l2-2l1-24l1-1h5l1,1v24l-3,6l-6,4h-8l-5-3l-4-5V421.4z"/>
<path class="st16" d="M693.3,421.4l8,1l5,3l-2,4l-3,2l-4-2l-7,1l-5,5v7l2,4l4,2h7l5-1l3,3l-2,4l-5,2h-9l-6-3l-5-6l-2-5l1-10l5-7l6-3
	L693.3,421.4z"/>
<path class="st7" d="M901.3,421.4l8,1l6,4l-5,5l-5-2l-7,1l-4,5v8l3,4l3,1h7l4-1l4,5l-7,4h-9l-6-3l-6-7l-1-3v-8l4-8l7-5L901.3,421.4z
	"/>
<path class="st7" d="M1244.3,421.4l8,1l4,2l-2,4l-4,2l-7-1l1,5l11,4l3,6l-1,7l-6,5h-8l-6-3v-4l4-2l9,2v-5l-10-3l-4-5v-9l5-5
	L1244.3,421.4z"/>
<path class="st7" d="M619.3,421.4l7,1l4,2l-1,4l-4,2l-6-1l-1,5l10,3l4,4v9l-4,5l-2,1h-8l-7-3l1-4l4-2l2,1h6l1-5l-10-2l-4-4l-1-8l4-6
	L619.3,421.4z"/>
<path class="st17" d="M1892.3,421.4h25v7h-9v28h-7l-1-27l-9-1v-6L1892.3,421.4z"/>
<path class="st12" d="M1767.3,421.4h26v7h-9v27l-1,1h-6l-1-27l-9-1V421.4z"/>
<path class="st17" d="M980.3,421.4h25l1,1v6l-9,1l-1,27h-7v-28h-9V421.4z"/>
<path class="st10" d="M2050.3,421.4h6l5,8l6-8h6v3l-7,14l-1,18h-7l-1-18l-7-14V421.4z"/>
<path class="st0" d="M1499.3,277.4h2l10,28v1h-22l2-9l7-19L1499.3,277.4z"/>
<path class="st0" d="M1405.3,428.4l8,1l4,4l1,9l-3,5l-4,2h-7l-5-3l-2-4v-7l4-5L1405.3,428.4z"/>
<path class="st0" d="M1066.3,428.4l7,1l5,5l1,7l-3,5l-4,3h-8l-5-4l-2-7l3-6l3-3L1066.3,428.4z"/>
<path class="st18" d="M1713.3,416.4h6v45l-5,1l-1-1V416.4z"/>
<path class="st19" d="M1365.3,421.4h6v35h-6l-1-1v-33L1365.3,421.4z"/>
<path class="st19" d="M1026.3,421.4h5l1,1v34h-7v-34L1026.3,421.4z"/>
<path class="st19" d="M652.3,421.4h6v35h-6l-1-1v-33L652.3,421.4z"/>
<path class="st19" d="M1560.3,421.4h5l1,1v33l-1,1h-6v-34L1560.3,421.4z"/>
<path class="st0" d="M802.3,428.4l7,1l5,5l1,7l-3,5l-4,3h-7v-20L802.3,428.4z"/>
<path class="st5" d="M1182.3,416.4h5v45l-4,1l-1-1V416.4z"/>
<path class="st3" d="M1937.3,421.4h6v35h-6l-1-2v-32L1937.3,421.4z"/>
<path class="st0" d="M528.3,442.4h6l2,2l-1,5h-7l-1-6L528.3,442.4z"/>
<path class="st0" d="M1859.3,428.4h5l2,2l-1,5h-6V428.4z"/>
<path class="st0" d="M1451.3,428.4l6,1l1,4l-2,2h-5l-1-4L1451.3,428.4z"/>
<path class="st0" d="M2019.3,428.4l6,1l1,4l-1,2h-6V428.4z"/>
<path class="st0" d="M528.3,428.4l5,1l1,4l-1,2h-6L528.3,428.4z"/>
<g>
	<path class="st20" d="M36.8,20.4h10.1l5.7,1.9l5,2.5l6.3,6.3l3.2,6.9l1.3,5.7v402.7l-2.5,8.2l-3.2,5l-4.4,4.4l-8.8,4.4l-3.2,0.6H38
		l-5.7-1.3l-7.6-4.4l-4.4-4.4l-3.2-6.3l-1.3-4.4l-0.6-5v-397l1.3-8.2l3.2-6.3l5.7-6.3l6.9-3.8L36.8,20.4z"/>
	<path class="st20" d="M231.5,20.4h12l7.6,3.2l5.7,4.4l3.8,5l2.5,5.7l0.6,3.2v406.5l-2.5,6.9l-5,6.9l-6.3,4.4l-4.4,1.9l-3.8,0.6
		h-8.2l-8.2-2.5l-6.9-5l-4.4-6.3l-2.5-6.9V42.5l2.5-8.2l5-6.9l6.3-4.4L231.5,20.4z"/>
	<path class="st20" d="M425,20.4h10.7l6.9,2.5l6.3,4.4l5,6.9l2.5,6.9v407.1l-2.5,6.9l-4.4,6.3l-6.9,5l-4.4,1.9l-3.2,0.6h-8.8
		l-8.2-2.5l-5.7-4.4l-4.4-5l-2.5-5l-1.3-5V41.8l3.2-8.8l5.7-6.3l5-3.8L425,20.4z"/>
	<path class="st20" d="M330.4,139.5h10.1l8.2,3.2l5.7,4.4l3.8,5l3.2,7.6v289.3l-3.2,7.6l-5,6.3l-5.7,3.8l-4.4,1.9l-3.8,0.6h-8.2
		l-5-1.3l-5-2.5l-6.3-5.7l-3.8-6.3l-1.9-5.7V161.6l1.9-6.9l4.4-6.3l6.3-5.7l5.7-2.5L330.4,139.5z"/>
	<path class="st20" d="M135.1,20.4h11.3l7.6,3.2l5,3.8l4.4,5l3.2,8.2l0.6,228.1l-1.3,7.6l-3.8,6.9l-5.7,5.7l-7.6,3.8l-1.9,0.6h-12.6
		l-7.6-3.2l-5-4.4l-3.8-4.4l-2.5-5l-1.3-9.5V43.7l1.3-5.7l3.2-6.3l5.7-6.3l5-3.2L135.1,20.4z"/>
	<path class="st20" d="M137.6,321.6l8.8,0.6l7.6,3.2l6.3,5.7l3.8,6.3l1.9,6.9v103.4l-2.5,6.9l-3.8,5.7l-5.7,5l-6.3,3.2l-3.2,0.6
		h-8.8l-6.9-1.9l-5.7-3.8l-5.7-5.7l-3.2-6.9l-0.6-2.5V342.4l1.9-5.7l4.4-6.3l4.4-4.4l8.2-3.8L137.6,321.6z"/>
	<path class="st20" d="M329.8,20.4h10.7l6.9,2.5l5.7,3.8l4.4,5l2.5,5l1.3,4.4v39.7l-1.9,6.3l-4.4,6.3l-5,4.4l-5,2.5l-3.8,1.3h-12
		l-7.6-3.2l-5.7-4.4l-4.4-6.3l-2.5-8.2V43.1l1.9-6.9l1.9-3.8l3.8-5l6.3-4.4L329.8,20.4z"/>
</g>
</svg>
