<?xml version="1.0" encoding="UTF-8"?>
<svg style="max-width: fit-content; height: 100%;" version="1.1" viewBox="0 0 1582 1262" xmlns="http://www.w3.org/2000/svg">
<path transform="translate(0)" d="m0 0h1582v1262h-1582z" fill="#FEFEFE"/>
<path transform="translate(480,11)" d="m0 0h16l9 3 8 4 10 10 5 11 2 9v639l-4 13-5 8-7 7-14 7-5 1h-13l-9-2-12-7-7-7-5-10-2-7-1-8v-630l2-13 5-10 9-10 11-6z" fill="#FDB040"/>
<path transform="translate(789,11)" d="m0 0h19l12 5 9 7 6 8 4 9 1 5v645l-4 11-8 11-10 7-7 3-6 1h-13l-13-4-11-8-7-10-4-11v-644l4-13 8-11 10-7z" fill="#FDB040"/>
<path transform="translate(1096,11)" d="m0 0h17l11 4 10 7 8 11 4 11v646l-4 11-7 10-11 8-7 3-5 1h-14l-13-4-9-7-7-8-4-8-2-8v-643l5-14 9-10 8-6z" fill="#FDB040"/>
<path transform="translate(946,200)" d="m0 0h16l13 5 9 7 6 8 5 12v459l-5 12-8 10-9 6-7 3-6 1h-13l-8-2-8-4-10-9-6-10-3-9v-454l3-11 7-10 10-9 9-4z" fill="#FDB040"/>
<path transform="translate(636,11)" d="m0 0h18l12 5 8 6 7 8 5 13 1 362-2 12-6 11-9 9-12 6-3 1h-20l-12-5-8-7-6-7-4-8-2-15v-354l2-9 5-10 9-10 8-5z" fill="#FDB040"/>
<path transform="translate(1e3 809)" d="m0 0h38l43 107 7 18 2 1 3-10 44-110 3-6h38v175h-35v-84h-2l-3 10-12 30-17 42-1 2h-39l-32-80-1-2-1 82h-35z" fill="#056537"/>
<path transform="translate(558,809)" d="m0 0h61l17 4 13 6 11 7 12 11 8 10 7 12 6 18 2 14v10l-2 15-6 18-9 15-11 12-8 7-14 8-16 6-10 2h-61z" fill="#056537"/>
<path transform="translate(640,489)" d="m0 0 14 1 12 5 10 9 6 10 3 11v164l-4 11-6 9-9 8-10 5-5 1h-14l-11-3-9-6-9-9-5-11-1-4v-168l3-9 7-10 7-7 13-6z" fill="#FDB040"/>
<path transform="translate(1405,809)" d="m0 0h42l14 23 13 22 39 65 2 3 1-113h36v174l-1 1h-41l-45-75-17-28-6-10-2-1v114h-35z" fill="#056537"/>
<path transform="translate(1274,809)" d="m0 0h38l7 18 19 53 20 55 17 47v2h-37l-4-9-14-38v-2h-54l-3 10-14 39h-38l3-10 20-55 23-64z" fill="#056537"/>
<path transform="translate(160,809)" d="m0 0h106v35l-70 1v33l70 1v35l-70 1v33l70 1v35h-106z" fill="#056537"/>
<path transform="translate(301,809)" d="m0 0h35l1 114 4 11 7 8 10 5 3 1h13l9-3 9-7 6-12 1-4 1-113h35v117l-4 16-7 13-8 10-11 9-12 6-9 3-6 1h-21l-11-3-12-5-13-10-8-9-6-10-5-15-1-6z" fill="#056537"/>
<path transform="translate(20,809)" d="m0 0h105l1 1v33l-1 1h-70v35h70l1 1v34h-71v70h-35z" fill="#056537"/>
<path transform="translate(445,1019)" d="m0 0h41l10 2 10 5 10 9 6 11 2 8v14l-3 10-2 4 1 4 7 8 4 8 2 8v12l-3 11-6 10-7 7-11 6-8 2h-54v-138z" fill="#3D4040"/>
<path transform="translate(693,1019)" d="m0 0h44l10 2 10 5 10 9 5 9 3 9v16l-4 11-6 9-9 8h-2l26 58v3h-30l-18-40-7-15-5-1v56h-27l-1-1v-137z" fill="#3C4040"/>
<path transform="translate(1220,1019)" d="m0 0h44l13 3 10 6 7 7 7 14 1 5v14l-3 10-6 10-9 8-2 1 1 5 18 40 6 14v2h-30l-16-35-9-20h-4l-1 55h-28v-138z" fill="#3C4040"/>
<path transform="translate(945,11)" d="m0 0h17l11 4 9 6 7 8 4 8 2 7v63l-3 10-7 10-8 7-8 4-6 2h-19l-12-5-9-7-7-10-4-13v-58l3-11 3-6 6-8 10-7z" fill="#FDB040"/>
<path transform="translate(984,1019)" d="m0 0h29l5 12 18 50 22 61 5 13v3h-29l-9-24-5-14-43-1-3 11-10 27-1 1h-29l3-10 18-50 28-77z" fill="#3D3F40"/>
<path transform="translate(799,809)" d="m0 0h35l1 139 63 1v35h-99z" fill="#056537"/>
<path transform="translate(933,809)" d="m0 0h35v175h-35z" fill="#056537"/>
<path transform="translate(730,809)" d="m0 0h34v175h-34l-1-3v-170z" fill="#056537"/>
<path transform="translate(593,844)" d="m0 0h21l12 3 11 6 10 9 7 10 4 10 1 5v19l-3 10-5 10-9 10-8 6-11 5-9 2h-21z" fill="#FEFEFE"/>
<path transform="translate(1452,1019)" d="m0 0h30l10 19 9 18 3-4 16-32 1-1h30l-1 5-10 19-24 48-1 67h-27l-1-66-11-23-24-48z" fill="#3D3F40"/>
<path transform="translate(20,1019)" d="m0 0h27v111h50l1 27-1 1h-77z" fill="#3E3F40"/>
<path transform="translate(258,1019)" d="m0 0h26l1 1v137l-1 1h-27v-138z" fill="#3C4040"/>
<path transform="translate(904,1206)" d="m0 0 8 1 7 4 4 6 1 10-4 8-6 5-3 1h-9l-6-3-5-6-2-5 1-10 5-7z" fill="#3A4240"/>
<path transform="translate(565,1206)" d="m0 0 8 1 6 4 4 5 1 2v11l-4 7-8 5h-9l-8-4-5-8v-10l3-6 6-5z" fill="#394240"/>
<path transform="translate(472,1102)" d="m0 0h21l7 3 5 6 1 6-2 7-6 5-2 1h-24l-1-2z" fill="#FEFEFE"/>
<path transform="translate(294,1206)" d="m0 0h11l8 3 6 7 2 9-3 9-7 6-3 1h-14z" fill="#3B4140"/>
<path transform="translate(720,1047)" d="m0 0h17l6 3 4 5 1 9-3 6-5 4-4 1h-16z" fill="#FEFEFE"/>
<path transform="translate(1247,1047)" d="m0 0h17l6 3 4 5 1 9-4 7-4 3-3 1h-17z" fill="#FEFEFE"/>
<path transform="translate(20,1206)" d="m0 0h11l6 3 3 6-1 8 3 5v6l-5 6-2 1h-15z" fill="#3A4140"/>
<path transform="translate(604,1206)" d="m0 0h7l7 10 6 11 2 1v-22h6v35h-8l-10-16-3-5-1 21h-6l-1-4v-30z" fill="#3A4240"/>
<path transform="translate(816,1206)" d="m0 0h7l7 10 6 10v2h2v-22h6v35h-8l-12-20-2-1v21h-6z" fill="#3B4140"/>
<path transform="translate(472,1047)" d="m0 0h14l6 3 4 5 1 9-3 6-5 4-4 1h-13l-1-27z" fill="#FEFEFE"/>
<path transform="translate(1099,1206)" d="m0 0 8 1 6 4-4 5-6-2-7 1-4 5-1 5 3 6 3 2h8l3-3h-7v-6l1-1h16l-1 9-5 6-6 3h-9l-8-4-4-5-1-3v-10l3-6 6-5z" fill="#38433F"/>
<path transform="translate(1352,1206)" d="m0 0h12l6 4 2 4-1 8-2 3h-2l5 12 1 4h-7l-7-13-1 13h-7v-34z" fill="#37433F"/>
<path transform="translate(1511,1206)" d="m0 0h12l5 3 3 3 1 6-3 6-1 5 4 9v3h-7l-6-13-1 12-1 1h-6z" fill="#394240"/>
<path transform="translate(1138,1206)" d="m0 0h6v14h13v-14h6l1 1v34h-7v-14h-13v14h-7v-34z" fill="#37443F"/>
<path transform="translate(943,1206)" d="m0 0h12l6 3 2 3v9l-4 6 5 11v3h-7l-6-13-1 4v8l-1 1h-6z" fill="#3A4240"/>
<path transform="translate(1292,862)" d="m0 0h2l13 36v2h-27l-1-2z" fill="#FEFEFE"/>
<path transform="translate(1013,1206)" d="m0 0h6v14h13v-13l1-1h6v35h-7v-14l-12 1-1 13h-6z" fill="#3B4140"/>
<path transform="translate(445,1206)" d="m0 0h7l12 33v2h-7l-4-9h-10l-4 9h-7l3-10 9-24z" fill="#414947"/>
<path transform="translate(1473,1206)" d="m0 0h7l5 12 7 20v3h-6l-3-6v-3h-11l-4 9h-7l1-5 10-28z" fill="#414947"/>
<path transform="translate(72,1206)" d="m0 0h6l5 12 8 23h-7l-4-9h-10l-4 9h-7l3-11 8-22z" fill="#404846"/>
<path transform="translate(1312,1206)" d="m0 0h20v7l-13 1-1 6h14v7l-13 1-1 6h14v7h-20l-1-1v-33z" fill="#38433F"/>
<path transform="translate(776,1206)" d="m0 0h20l1 1v5l-1 1-13 1-1 6h14l1 1v5l-1 1-13 1-1 6h14l1 1v5l-1 1h-20z" fill="#3A4140"/>
<path transform="translate(254,1206)" d="m0 0h20v7h-13v7h13l1 2-1 5h-13v7h13l1 2-1 5h-20z" fill="#3A4140"/>
<path transform="translate(340,1206)" d="m0 0h6l1 23 1 4h8l2-2 1-24 1-1h5l1 1v24l-3 6-6 4h-8l-5-3-4-5z" fill="#39433F"/>
<path transform="translate(192,1206)" d="m0 0 8 1 5 3-2 4-3 2-4-2-7 1-5 5v7l2 4 4 2h7l5-1 3 3-2 4-5 2h-9l-6-3-5-6-2-5 1-10 5-7 6-3z" fill="#39423F"/>
<path transform="translate(400,1206)" d="m0 0 8 1 6 4-5 5-5-2-7 1-4 5v8l3 4 3 1h7l4-1 4 5-7 4h-9l-6-3-6-7-1-3v-8l4-8 7-5z" fill="#394240"/>
<path transform="translate(743,1206)" d="m0 0 8 1 4 2-2 4-4 2-7-1 1 5 11 4 3 6-1 7-6 5h-8l-6-3v-4l4-2 9 2v-5l-10-3-4-5v-9l5-5z" fill="#394240"/>
<path transform="translate(118,1206)" d="m0 0 7 1 4 2-1 4-4 2-6-1-1 5 10 3 4 4v9l-4 5-2 1h-8l-7-3 1-4 4-2 2 1h6l1-5-10-2-4-4-1-8 4-6z" fill="#394240"/>
<path transform="translate(1391,1206)" d="m0 0h25v7h-9v28h-7l-1-27-9-1v-6z" fill="#36443F"/>
<path transform="translate(1266,1206)" d="m0 0h26v7h-9v27l-1 1h-6l-1-27-9-1z" fill="#37443F"/>
<path transform="translate(479,1206)" d="m0 0h25l1 1v6l-9 1-1 27h-7v-28h-9z" fill="#36443F"/>
<path transform="translate(1549,1206)" d="m0 0h6l5 8 6-8h6v3l-7 14-1 18h-7l-1-18-7-14z" fill="#38433F"/>
<path transform="translate(998,1062)" d="m0 0h2l10 28v1h-22l2-9 7-19z" fill="#FEFEFE"/>
<path transform="translate(904,1213)" d="m0 0 8 1 4 4 1 9-3 5-4 2h-7l-5-3-2-4v-7l4-5z" fill="#FEFEFE"/>
<path transform="translate(565,1213)" d="m0 0 7 1 5 5 1 7-3 5-4 3h-8l-5-4-2-7 3-6 3-3z" fill="#FEFEFE"/>
<path transform="translate(1212,1201)" d="m0 0h6v45l-5 1-1-1z" fill="#2B4C3D"/>
<path transform="translate(864,1206)" d="m0 0h6v35h-6l-1-1v-33z" fill="#35453F"/>
<path transform="translate(525,1206)" d="m0 0h5l1 1v34h-7v-34z" fill="#35453F"/>
<path transform="translate(151,1206)" d="m0 0h6v35h-6l-1-1v-33z" fill="#35453F"/>
<path transform="translate(1059,1206)" d="m0 0h5l1 1v33l-1 1h-6v-34z" fill="#35453F"/>
<path transform="translate(301,1213)" d="m0 0 7 1 5 5 1 7-3 5-4 3h-7v-20z" fill="#FEFEFE"/>
<path transform="translate(681,1201)" d="m0 0h5v45l-4 1-1-1z" fill="#3E3F40"/>
<path transform="translate(1436,1206)" d="m0 0h6v35h-6l-1-2v-32z" fill="#3C4040"/>
<path transform="translate(27,1227)" d="m0 0h6l2 2-1 5h-7l-1-6z" fill="#FEFEFE"/>
<path transform="translate(1358,1213)" d="m0 0h5l2 2-1 5h-6z" fill="#FEFEFE"/>
<path transform="translate(950,1213)" d="m0 0 6 1 1 4-2 2h-5l-1-4z" fill="#FEFEFE"/>
<path transform="translate(1518,1213)" d="m0 0 6 1 1 4-1 2h-6z" fill="#FEFEFE"/>
<path transform="translate(27,1213)" d="m0 0 5 1 1 4-1 2h-6z" fill="#FEFEFE"/>
</svg>
