<?xml version="1.0" encoding="utf-8" ?>
<svg xmlns="http://www.w3.org/2000/svg" xmlns:xlink="http://www.w3.org/1999/xlink" width="1523" height="1600">
	<path fill="transparent" d="M0 0L1523 0L1523 1598.63C1522.45 1598.95 1521.88 1599.31 1521.28 1599.51C1515.69 1601.39 1460.18 1600 1447.86 1600L1212.1 1600.01L19.049 1600C13.6843 1600 4.64423 1601.27 0 1598.63L0 0ZM465.24 9.58802C434.615 20.0462 398.478 81.5768 384.484 110.002C348.627 182.835 345.696 256.201 358.52 335.191C346.599 340.518 335.182 346.838 323.702 353.042C263.364 385.649 205.906 427.208 160.284 478.736C152.778 487.213 144.432 496.034 138.406 505.641C145.241 545.551 155.468 582.553 171.41 619.859C175.413 629.226 179.336 639.304 185.128 647.724C172.94 651.749 161.271 657.811 155.143 669.768C151.833 676.226 152.003 681.573 152.475 688.555C141.65 693.061 132.967 702.588 128.554 713.384C124.842 722.464 125.175 731.193 128.988 740.139C135.042 754.342 146.216 765.539 153.778 778.817C161.986 793.229 169.346 808.12 177.623 822.514C207.704 874.824 243.022 926.782 290.528 964.864C280.967 979.055 230.484 1059.15 233.355 1073.37C233.971 1076.42 236.856 1079.76 238.627 1082.28C226.321 1088.7 214.647 1096.52 202.721 1103.62C182.121 1115.89 111.394 1155.13 104.965 1176.94C97.5339 1202.14 113.652 1244.45 126.348 1266.55C142.475 1294.63 174.606 1336.08 206.785 1344.91C214.517 1347.04 222.147 1347.29 229.892 1345C246.026 1340.22 260.821 1328.82 275.865 1321.32C280.792 1318.86 286.051 1317.07 291.044 1314.73C311.451 1305.19 332.805 1295.18 352.279 1283.91Q355.243 1282.19 358.049 1280.23L371.75 1287.86C340.151 1342.07 289.447 1385.24 228.245 1401.41C200.007 1408.87 171.704 1411.58 142.577 1412.17C135.123 1394.49 122.524 1380.85 104.54 1373.55C83.445 1364.97 44.2131 1365.74 23.1646 1374.75C21.1112 1375.63 19.5229 1376.42 18.4002 1378.44C21.1981 1387.57 51.8516 1403.83 45.6034 1415.7C38.4057 1429.36 3.42427 1432.38 1.93134 1441.04C8.69653 1450.94 35.8328 1467.35 46.506 1472.19Q52.0955 1474.75 57.949 1476.63Q63.8024 1478.51 69.8373 1479.68C88.0408 1483.19 106.073 1479.09 121.317 1468.52C130.689 1462.03 137.056 1453.96 142.685 1444.17C201.859 1448.67 253.931 1449.03 308.629 1422.34C327.304 1413.22 344.278 1402.29 360.045 1388.74C384.881 1367.4 404.973 1341.23 421.761 1313.23Q448.941 1324.29 476.413 1334.61C471.329 1360.36 467.515 1386.22 463.337 1412.12C461.318 1424.64 457.03 1440.85 457.671 1453.42C457.944 1458.76 461.264 1464.91 464.2 1469.3C482.366 1496.5 523.122 1509.94 553.994 1515.83C578.991 1520.59 622.93 1525.39 644.69 1510.07C649.72 1506.52 652.963 1501.78 655.675 1496.37C662.848 1482.04 667.13 1465.09 671.672 1449.76Q686.828 1398.45 698.404 1346.22C702.091 1329.11 704.663 1311.7 708.6 1294.67L715.423 1293.88C721.539 1293.6 727.799 1293.03 733.914 1293.34C744.949 1280.9 753.414 1264.3 761.131 1249.63Q766.672 1239.25 771.861 1228.69Q777.05 1218.12 781.88 1207.39Q786.71 1196.66 791.176 1185.78Q795.642 1174.89 799.739 1163.86Q803.836 1152.83 807.559 1141.66Q811.283 1130.5 814.628 1119.22Q817.973 1107.94 820.936 1096.55Q823.9 1085.16 826.478 1073.68Q833.072 1074.95 839.693 1076.08Q846.313 1077.2 852.957 1078.18Q859.6 1079.16 866.264 1079.99Q872.927 1080.82 879.608 1081.51Q886.288 1082.19 892.982 1082.73Q899.675 1083.27 906.379 1083.66Q913.083 1084.05 919.794 1084.29Q926.505 1084.54 933.22 1084.63Q939.935 1084.73 946.65 1084.67Q953.365 1084.62 960.078 1084.42Q966.79 1084.22 973.496 1083.87Q980.203 1083.52 986.9 1083.03Q993.597 1082.53 1000.28 1081.89Q1006.97 1081.25 1013.63 1080.46Q1020.3 1079.67 1026.95 1078.73Q1033.6 1077.79 1040.23 1076.71C1051.91 1074.84 1065.14 1073.61 1076.39 1069.87L1076.8 1059.1C1077.94 1062.25 1079.38 1068.48 1082.65 1070C1088.69 1072.82 1130.35 1075.41 1135.79 1072.43C1138.05 1071.19 1139.22 1066.95 1139.83 1064.6C1142.14 1055.68 1141.81 1046.11 1143.4 1037.05C1152.7 1039.13 1162.97 1041.35 1171.67 1035.98C1177.67 1032.27 1180.95 1025.94 1182.25 1019.17C1183.67 1011.8 1182.77 1004.51 1181.44 997.209C1189.23 990.298 1192.11 983.602 1192.73 973.188C1193.16 965.913 1192.1 958.476 1187 952.932C1186.14 951.998 1185.23 951.18 1184.25 950.366C1192.35 942.111 1194.4 933.601 1194.16 922.249C1194.03 915.84 1191.97 909.699 1187.32 905.162C1177.53 895.6 1162.86 896.476 1150.3 894.831C1150.65 889.223 1151.31 883.804 1152.25 878.265C1170.92 879.39 1189.67 879.789 1208.36 880.605C1217.56 881.006 1227.01 880.975 1236.12 882.353C1271 887.63 1311.69 914.862 1339.48 935.784C1350.64 944.192 1361.78 952.836 1372.48 961.828C1381.81 969.663 1408.48 995.284 1417.29 998.908C1422.24 1000.95 1426.81 1000.82 1430.98 997.306C1452.42 979.276 1465.72 887.731 1467.67 858.888C1487.76 843.729 1501.07 823.417 1504.71 798.229C1508.68 770.727 1501.78 744.229 1485.06 722.089C1480.81 716.472 1476.04 711.898 1470.74 707.284C1470.57 681.912 1465.7 588.8 1447.92 571.37C1445.04 568.539 1441.67 568.08 1437.74 568.273C1423.35 568.979 1410 579.144 1398.12 586.52C1356.55 612.338 1280.98 671.353 1235.44 675.392C1230.96 661.253 1224.42 647.802 1218.13 634.394C1188.3 570.811 1147.66 507.987 1096.55 459.393Q1101.25 452.426 1105.5 445.182Q1109.76 437.937 1113.56 430.443Q1117.36 422.949 1120.68 415.233Q1124.01 407.518 1126.85 399.611C1150.29 332.286 1151.37 237.531 1137.33 167.871C1134.39 153.272 1129.6 135.518 1116.54 126.671C1107.47 120.52 1093.95 117.235 1083.19 119.464C1073.89 121.39 1068.83 127.211 1064.01 134.895C1052.47 153.325 1043.96 173.302 1030.99 190.943C1004.45 227.009 973.702 253.032 942.179 283.833C932.806 292.991 924.136 302.898 915.219 312.497C895.428 303.556 876.017 294.933 855.268 288.386C864.965 259.803 881.096 232.479 906.37 214.961C917.879 206.984 930.86 200.832 943.337 194.534C943.019 194.45 942.699 194.37 942.381 194.28C932.066 191.364 922.036 185.662 912.176 181.391Q892.357 172.912 871.766 166.531Q867.883 165.271 863.969 164.112Q860.055 162.952 856.113 161.892Q852.17 160.833 848.202 159.875Q844.234 158.917 840.242 158.061Q836.251 157.205 832.239 156.451Q828.227 155.698 824.197 155.047Q820.167 154.396 816.121 153.849Q812.076 153.301 808.018 152.858Q803.96 152.414 799.892 152.075Q795.824 151.735 791.748 151.5Q787.673 151.264 783.593 151.133Q779.513 151.002 775.43 150.976Q771.348 150.949 767.267 151.027Q763.185 151.105 759.107 151.288Q755.029 151.47 750.957 151.757Q746.885 152.044 742.821 152.435Q738.758 152.826 734.706 153.32Q730.653 153.815 726.615 154.414Q722.577 155.012 718.556 155.714Q714.534 156.415 710.532 157.219Q706.53 158.024 702.549 158.93Q698.569 159.836 694.613 160.844Q690.658 161.852 686.729 162.961Q682.8 164.07 678.901 165.279Q675.002 166.489 671.135 167.797Q667.269 169.106 663.437 170.513Q659.605 171.92 655.81 173.425Q652.015 174.929 648.26 176.531Q644.506 178.132 640.793 179.829Q637.08 181.526 633.412 183.317Q629.744 185.109 626.123 186.993Q622.502 188.878 618.931 190.855C597.532 202.527 576.036 217.507 557.739 233.551C547.872 211.549 539.43 189.049 531.293 166.364C522.447 141.7 513.669 116.569 508.743 90.7696Q506.35 78.229 505.898 65.4702C505.542 54.2272 506.906 43.0023 503.126 32.1586C499.911 22.9327 493.781 15.3111 484.544 11.6169C478.273 9.10881 471.866 8.81953 465.24 9.58802Z"/>
	<path fill="#0C0501" d="M358.52 335.191C345.696 256.201 348.627 182.835 384.484 110.002C398.478 81.5768 434.615 20.0462 465.24 9.58802C471.866 8.81953 478.273 9.10881 484.544 11.6169C493.781 15.3111 499.911 22.9327 503.126 32.1586C506.906 43.0023 505.542 54.2272 505.898 65.4702Q506.35 78.229 508.743 90.7696C513.669 116.569 522.447 141.7 531.293 166.364C539.43 189.049 547.872 211.549 557.739 233.551C576.036 217.507 597.532 202.527 618.931 190.855Q622.502 188.878 626.123 186.993Q629.744 185.109 633.412 183.317Q637.08 181.526 640.793 179.829Q644.506 178.132 648.26 176.531Q652.015 174.929 655.81 173.425Q659.605 171.92 663.437 170.513Q667.269 169.106 671.135 167.797Q675.002 166.489 678.901 165.279Q682.8 164.07 686.729 162.961Q690.658 161.852 694.613 160.844Q698.569 159.836 702.549 158.93Q706.53 158.024 710.532 157.219Q714.534 156.415 718.556 155.714Q722.577 155.012 726.615 154.414Q730.653 153.815 734.706 153.32Q738.758 152.826 742.821 152.435Q746.885 152.044 750.957 151.757Q755.029 151.47 759.107 151.288Q763.185 151.105 767.267 151.027Q771.348 150.949 775.43 150.976Q779.513 151.002 783.593 151.133Q787.673 151.264 791.748 151.5Q795.824 151.735 799.892 152.075Q803.96 152.414 808.018 152.858Q812.076 153.301 816.122 153.849Q820.167 154.396 824.197 155.047Q828.227 155.698 832.239 156.451Q836.251 157.205 840.242 158.061Q844.234 158.917 848.202 159.875Q852.17 160.833 856.113 161.892Q860.055 162.952 863.969 164.112Q867.883 165.271 871.766 166.531Q892.357 172.912 912.176 181.391C922.036 185.662 932.066 191.364 942.381 194.28C942.699 194.37 943.019 194.45 943.337 194.534C930.86 200.832 917.879 206.984 906.37 214.961C881.096 232.479 864.965 259.803 855.268 288.386C876.017 294.933 895.428 303.556 915.219 312.497C924.136 302.898 932.806 292.991 942.179 283.833C973.702 253.032 1004.45 227.009 1030.99 190.943C1043.96 173.302 1052.47 153.325 1064.01 134.895C1068.83 127.211 1073.89 121.39 1083.19 119.464C1093.95 117.235 1107.47 120.52 1116.54 126.671C1129.6 135.518 1134.39 153.272 1137.33 167.871C1151.37 237.531 1150.29 332.286 1126.85 399.611Q1124.01 407.518 1120.68 415.233Q1117.36 422.949 1113.56 430.443Q1109.76 437.937 1105.5 445.182Q1101.25 452.426 1096.55 459.393C1147.66 507.987 1188.3 570.811 1218.13 634.394C1224.42 647.802 1230.96 661.253 1235.44 675.392C1280.98 671.353 1356.55 612.338 1398.12 586.52C1410 579.144 1423.35 568.979 1437.74 568.273C1441.67 568.08 1445.04 568.539 1447.92 571.37C1465.7 588.8 1470.57 681.912 1470.74 707.284C1476.04 711.898 1480.81 716.472 1485.06 722.089C1501.78 744.229 1508.68 770.727 1504.71 798.229C1501.07 823.417 1487.76 843.729 1467.67 858.888C1465.72 887.731 1452.42 979.276 1430.98 997.306C1426.81 1000.82 1422.24 1000.95 1417.29 998.908C1408.48 995.284 1381.81 969.663 1372.48 961.828C1361.78 952.836 1350.64 944.192 1339.48 935.784C1311.69 914.862 1271 887.63 1236.12 882.353C1227.01 880.975 1217.56 881.006 1208.36 880.605C1189.67 879.789 1170.92 879.39 1152.25 878.265C1151.31 883.804 1150.65 889.223 1150.3 894.831C1162.86 896.476 1177.53 895.6 1187.32 905.162C1191.97 909.699 1194.03 915.84 1194.16 922.249C1194.4 933.601 1192.35 942.111 1184.25 950.366C1185.23 951.18 1186.14 951.998 1187 952.932C1192.1 958.476 1193.16 965.913 1192.73 973.188C1192.11 983.602 1189.23 990.298 1181.44 997.209C1182.77 1004.51 1183.67 1011.8 1182.25 1019.17C1180.95 1025.94 1177.67 1032.27 1171.67 1035.98C1162.97 1041.35 1152.7 1039.13 1143.4 1037.05C1141.81 1046.11 1142.14 1055.68 1139.83 1064.6C1139.22 1066.95 1138.05 1071.19 1135.79 1072.43C1130.35 1075.41 1088.69 1072.82 1082.65 1070C1079.38 1068.48 1077.94 1062.25 1076.8 1059.1L1076.39 1069.87C1065.14 1073.61 1051.91 1074.84 1040.23 1076.71Q1033.6 1077.79 1026.95 1078.73Q1020.3 1079.67 1013.63 1080.46Q1006.97 1081.25 1000.28 1081.89Q993.597 1082.53 986.9 1083.03Q980.203 1083.52 973.496 1083.87Q966.79 1084.22 960.078 1084.42Q953.365 1084.62 946.65 1084.67Q939.935 1084.73 933.22 1084.63Q926.505 1084.54 919.795 1084.29Q913.083 1084.05 906.38 1083.66Q899.676 1083.27 892.982 1082.73Q886.288 1082.19 879.608 1081.51Q872.927 1080.82 866.264 1079.99Q859.6 1079.16 852.957 1078.18Q846.313 1077.2 839.693 1076.08Q833.072 1074.95 826.478 1073.68Q823.9 1085.16 820.936 1096.55Q817.973 1107.94 814.628 1119.22Q811.283 1130.5 807.559 1141.66Q803.836 1152.83 799.739 1163.86Q795.642 1174.89 791.176 1185.78Q786.71 1196.66 781.88 1207.39Q777.05 1218.12 771.861 1228.69Q766.672 1239.25 761.131 1249.63C753.414 1264.3 744.949 1280.9 733.914 1293.34C727.799 1293.03 721.539 1293.6 715.423 1293.88L708.6 1294.67C704.663 1311.7 702.091 1329.11 698.404 1346.22Q686.828 1398.45 671.672 1449.76C667.13 1465.09 662.848 1482.04 655.675 1496.37C652.963 1501.78 649.72 1506.52 644.69 1510.07C622.93 1525.39 578.991 1520.59 553.994 1515.83C523.122 1509.94 482.366 1496.5 464.2 1469.3C461.264 1464.91 457.944 1458.76 457.671 1453.42C457.03 1440.85 461.318 1424.64 463.337 1412.12C467.515 1386.22 471.329 1360.36 476.413 1334.61Q448.941 1324.29 421.761 1313.23C404.973 1341.23 384.881 1367.4 360.045 1388.74C344.278 1402.29 327.304 1413.22 308.629 1422.34C253.931 1449.03 201.859 1448.67 142.685 1444.17C137.056 1453.96 130.689 1462.03 121.317 1468.52C106.073 1479.09 88.0408 1483.19 69.8373 1479.68Q63.8024 1478.51 57.949 1476.63Q52.0955 1474.75 46.506 1472.19C35.8328 1467.35 8.69653 1450.94 1.93134 1441.04C3.42427 1432.38 38.4057 1429.36 45.6034 1415.7C51.8516 1403.83 21.1981 1387.57 18.4002 1378.44C19.5229 1376.42 21.1112 1375.63 23.1646 1374.75C44.2131 1365.74 83.445 1364.97 104.54 1373.55C122.524 1380.85 135.123 1394.49 142.577 1412.17C171.704 1411.58 200.007 1408.87 228.245 1401.41C289.447 1385.24 340.151 1342.07 371.75 1287.86L358.049 1280.23Q355.243 1282.19 352.279 1283.91C332.805 1295.18 311.451 1305.19 291.044 1314.73C286.051 1317.07 280.792 1318.86 275.865 1321.32C260.821 1328.82 246.026 1340.22 229.892 1345C222.147 1347.29 214.517 1347.04 206.785 1344.91C174.606 1336.08 142.475 1294.63 126.348 1266.55C113.652 1244.45 97.5339 1202.14 104.965 1176.94C111.394 1155.13 182.121 1115.89 202.721 1103.62C214.647 1096.52 226.321 1088.7 238.627 1082.28C236.856 1079.76 233.971 1076.42 233.355 1073.37C230.484 1059.15 280.967 979.055 290.528 964.864C243.022 926.782 207.704 874.824 177.623 822.514C169.346 808.12 161.986 793.229 153.778 778.817C146.216 765.539 135.042 754.342 128.988 740.139C125.175 731.193 124.842 722.464 128.554 713.384C132.967 702.588 141.65 693.061 152.475 688.555C152.003 681.573 151.833 676.226 155.143 669.768C161.271 657.811 172.94 651.749 185.128 647.724C179.336 639.304 175.413 629.226 171.41 619.859C155.468 582.553 145.241 545.551 138.406 505.641C144.432 496.034 152.778 487.213 160.284 478.736C205.906 427.208 263.364 385.649 323.702 353.042C335.182 346.838 346.599 340.518 358.52 335.191ZM576.854 228.656L566.912 237.182L567.721 237.473C577.346 240.866 587.403 242.983 597.1 246.174C607.525 249.604 617.584 254.396 627.446 259.176C620.845 258.807 613.936 255.502 607.334 254.228C601.737 256.976 596.199 259.77 590.74 262.782C597.189 262.34 603.675 261.431 610.123 261.224C615.667 261.046 627.032 263.354 631.621 261.258C640.335 264.92 651.203 269.674 658.303 275.947C634.953 270.78 605.438 264.089 582.226 271.785C578.136 273.142 574.469 275.513 570.604 277.371C569.489 277.386 566.763 277.798 565.982 277.06C562.761 274.016 545.338 228.382 541.502 220.66C495.133 253.814 445.3 278.502 386.335 268.771C377.702 267.346 369.034 265.36 360.809 262.338C360.933 292.168 363.99 323.682 371.3 352.651C373.939 362.999 377.77 373.967 379.181 384.499C375.433 383.347 372.377 377.445 370.57 374.079C365.773 365.137 363.033 355.418 360.608 345.626C341.002 351.958 322.639 362.952 305.02 373.479C245.471 409.06 190.929 452.142 148.037 507.044C154.776 543.472 163.219 578.054 177.906 612.211C181.647 620.913 185.324 629.958 190.618 637.846C195.473 626.783 203.903 618.328 215.358 614.046C219.797 612.387 224.53 611.977 228.843 614.237C238.528 619.314 243.397 634.964 246.743 644.64C249.508 631.516 252.441 618.358 256.156 605.465C250.224 602.905 244.532 600.45 239.271 596.663C222.094 584.297 210.532 561.286 202.81 541.972C198.98 532.394 193.429 517.183 197.988 507.128C210.539 479.452 308.708 418.669 338.071 408.341C340.178 407.599 342.378 407.101 344.56 406.638C344.432 406.92 344.308 407.203 344.177 407.483C340.537 415.276 335.399 422.514 330.962 429.88C325.78 438.486 321.102 447.513 316.777 456.577C295.671 500.807 280.969 549.897 267.533 596.953C261.851 616.851 254.171 638.948 253.821 659.775C253.575 674.404 258.955 690.138 263.805 703.867C270.349 722.391 279.452 743.191 291.83 758.48C300.956 769.752 313.894 778.705 325.4 787.402C364.68 817.091 403.963 841.557 448.487 862.723C577.508 924.06 684.561 949.323 827.693 938.963C870.057 935.896 914.567 930.038 954.764 915.704C992.533 902.236 1025.01 879.893 1048.06 846.679C1031.63 809.366 1027.93 763.22 1042.77 724.656C1049.64 706.807 1060.49 693.37 1075.1 681.267C1079.88 679.332 1084.71 677.407 1089.82 676.55C1100.04 674.835 1111.04 675.664 1121.37 675.702C1141.67 675.775 1162.11 676.206 1182.39 675.221C1165.39 636.904 1138.94 596.037 1110.62 565.194C1103.42 557.355 1090.75 542.464 1080.31 539.879C1078.26 539.371 1075.61 540.021 1073.46 539.932L1071.98 537.967C1073.3 536.713 1074.66 535.595 1076.45 535.077C1080.28 533.968 1085.22 536.369 1088.42 538.219C1119.11 555.915 1178.52 640.966 1187.31 675.65Q1207.18 675.103 1227.06 675.116Q1222.4 663.265 1217.27 651.611Q1212.15 639.956 1206.56 628.515Q1200.97 617.075 1194.92 605.867Q1188.88 594.659 1182.39 583.702Q1175.9 572.745 1168.98 562.057Q1162.06 551.368 1154.72 540.964Q1147.38 530.561 1139.62 520.46Q1131.87 510.358 1123.72 500.575C1113.57 488.263 1101.79 477.492 1091.55 465.325Q1088.84 468.947 1085.89 472.375Q1082.94 475.802 1079.75 479.018Q1076.57 482.234 1073.18 485.223Q1069.78 488.212 1066.19 490.961L1057.83 489.484Q1068.37 478.912 1078.41 467.857C1095.32 449.874 1106.33 426.005 1115.48 403.37Q1111.05 402.406 1106.65 401.323C1055.91 388.912 1011.72 358.121 980.255 316.69C971.706 305.434 964.551 293.363 957.234 281.295C945.017 294.398 925.969 316.296 911.96 326.543L908.173 328.773L911.523 320.192C898.642 312.8 884.097 307.782 870.281 302.454C864.391 299.919 858.16 298.181 852.041 296.284C848.205 305.771 845.32 315.957 842.329 325.754C841.936 312.555 843.197 299.082 846.648 286.32C858.189 243.634 884.886 215.957 922.299 194.703C884.259 179.204 845.813 166.429 804.832 161.807Q801.045 161.407 797.249 161.1Q793.453 160.793 789.65 160.578Q785.848 160.364 782.041 160.242Q778.235 160.12 774.427 160.092Q770.618 160.063 766.81 160.127Q763.002 160.191 759.197 160.348Q755.392 160.505 751.592 160.755Q747.792 161.005 743.999 161.347Q740.206 161.689 736.422 162.124Q732.639 162.559 728.867 163.086Q725.095 163.613 721.337 164.232Q717.579 164.851 713.838 165.561Q710.096 166.272 706.373 167.073Q702.65 167.875 698.948 168.767Q695.245 169.659 691.566 170.641Q687.886 171.623 684.232 172.695Q680.577 173.766 676.95 174.927Q673.323 176.087 669.725 177.336Q666.127 178.584 662.561 179.92Q658.994 181.256 655.462 182.679Q651.929 184.101 648.432 185.61Q644.935 187.118 641.476 188.711Q638.017 190.304 634.598 191.982Q631.179 193.659 627.802 195.419Q624.425 197.179 621.092 199.021Q617.759 200.863 614.471 202.785Q611.184 204.708 607.945 206.71Q604.705 208.713 601.516 210.793Q598.327 212.874 595.189 215.032Q592.051 217.19 588.967 219.424Q585.883 221.658 582.854 223.966Q579.825 226.274 576.854 228.656ZM1154.86 767.791C1153.81 774.803 1154.01 782.152 1154.04 789.234C1154.19 819.391 1158.9 840.813 1165.68 869.834L1209.98 871.884C1221.33 872.349 1232.93 872.176 1244.07 874.589C1293.99 885.402 1378.54 950.623 1413.59 987.087C1403.29 947.292 1398.87 905.728 1396.69 864.737C1395.53 836.498 1394.51 808.185 1395.57 779.923C1397.79 720.745 1410.45 630.425 1434.23 575.598C1415.83 583.84 1398.12 596.851 1381.29 607.943C1350.74 628.075 1320.55 648.633 1288.11 665.694C1275.21 672.48 1261.97 679.619 1247.47 682.195C1226.99 685.835 1194.62 683.883 1173.1 683.733C1161.47 708.687 1155.38 740.331 1154.86 767.791ZM1042.11 772.842C1041.26 778.406 1041.81 784.14 1042.21 789.728C1043.69 810.656 1048.02 830.792 1060.65 848.059C1066.73 856.364 1074.54 862.328 1083.54 867.176C1107.89 866.944 1131.86 868.01 1156.17 868.946C1147.67 838.305 1145.59 808.153 1146.34 776.472C1146.83 745.58 1152 711.975 1164.24 683.453C1147.18 683.631 1102.15 681.359 1088.34 685.524C1082.27 687.352 1076.95 690.902 1072.21 695.025C1050.33 714.055 1043.98 745.251 1042.11 772.842ZM316.733 792.097C307.707 784.272 297.658 777.431 289.093 769.117C272.204 752.722 266.724 729.583 255.546 709.633C226.792 742.124 203.786 761.884 164.964 781.634C176.804 806.335 191.331 830.087 206.377 852.955C209.301 857.4 212.415 863.316 216.075 867.132C238.657 902.565 266.11 934.938 299.293 960.969C300.339 961.533 301.287 961.625 301.61 962.862C302.011 964.396 301.584 965.441 301.192 966.929C288.839 976.169 245.704 1056.14 240.394 1073.53C242.798 1077.36 245.359 1080.79 248.284 1084.24C242.408 1086.02 239.537 1087.88 235.511 1092.51C223.236 1102.04 209.181 1108.69 196.073 1116.93C188.198 1121.55 180.274 1126.32 173.144 1132.05C182.692 1183.7 202.245 1236.24 235.647 1277.3C243.628 1287.11 252.117 1296.55 262.6 1303.76Q269.977 1308.8 277.759 1313.19C284.287 1309.83 290.979 1306.63 297.361 1303.01Q318.864 1291.48 340.235 1279.71C346.544 1276.22 352.781 1272 359.307 1268.99C361.21 1268.11 362.638 1267.43 364.782 1267.68C365.707 1268.38 366.258 1268.42 366.391 1269.68C366.599 1271.64 365.894 1273.47 365.334 1275.33C371.025 1278.83 377.2 1281.19 383.103 1284.27C400.934 1293.58 417.896 1303.11 436.638 1310.66C452.132 1316.9 468.257 1323.35 484.127 1328.57C491.285 1330.92 498.982 1331.98 506.003 1334.62C507.831 1335.31 508.804 1336.11 509.96 1337.72C510.415 1340.06 510.437 1340.42 509.627 1342.65C508.202 1343.72 507.33 1344.43 505.455 1343.97C500.292 1342.68 489.688 1339.56 484.717 1337.78C482.126 1349.09 480.287 1360.57 478.533 1372.04C476.188 1382.31 475.45 1392.88 473.428 1403.19C471.84 1414.68 465.958 1443.51 467.302 1452.93C468.01 1457.89 470.907 1462.84 473.9 1466.81C494.132 1493.69 540.239 1505.2 572.49 1509.46C591.703 1512 623.739 1513.93 640.181 1501.32C651.63 1492.54 660.663 1455.63 665.525 1440.55C668.507 1429.75 671.599 1418.95 674.09 1408.02Q687.124 1360.67 696.805 1312.52C698.76 1304.02 700.179 1295.39 702.199 1286.91L707.623 1286.05Q719.604 1285.45 731.544 1284.3C759.673 1241.12 788.545 1176.43 803.644 1127.06C810.136 1105.83 815.01 1084 819.473 1062.26L827.248 1064.47C874.337 1075.71 936.394 1079.54 984.358 1074.31C1013.23 1072.48 1041.5 1067.45 1070.12 1063.64C1066.42 1043.43 1064.98 1022.71 1062.72 1002.29Q1057.67 959.058 1051.45 915.977C1030.12 919.783 1008.51 922.368 987.044 925.394C967.763 928.274 948.18 929.183 928.975 932.127C917.424 933.899 906.042 936.815 894.503 938.741C872.408 942.428 850.269 944.737 827.949 946.54C823.691 946.775 819.329 946.846 815.096 947.329C812.05 947.679 808.894 947.64 805.826 947.755C788.004 947.467 770.175 948.76 752.313 948.272C667.16 945.944 600.304 932.254 520.538 902.051C499.887 894.231 479.292 885.37 459.222 876.163C448.931 871.441 438.385 864.754 427.557 861.575C427.264 861.489 426.967 861.413 426.673 861.331C420.976 858.097 414.882 855.395 408.995 852.513L399.773 847.196C372.455 833.588 340.364 811.377 316.733 792.097ZM1141.47 897.176C1142.91 890.428 1143.21 883.555 1145.08 876.89Q1117.3 875.313 1089.49 874.74Q1087.27 897.275 1084.08 919.692C1083.44 920.545 1083.45 920.902 1082.38 921.144C1074.64 922.884 1067.56 925.155 1060.57 928.939C1061.79 940.968 1067.04 991.814 1070.31 999.699C1073.45 1000.96 1076.1 999.875 1079.09 998.581C1080.49 997.976 1081.81 997.272 1083.13 996.525C1080.9 1011.85 1082.91 1046.49 1085.74 1062.15C1099.96 1065.36 1116.82 1065.87 1131.36 1065.74C1133.54 1055.33 1134.19 1044.88 1134.75 1034.29C1131.66 1033.55 1128.69 1032.9 1125.78 1031.58C1138.04 1028.16 1152.43 1035.64 1164.73 1031.87C1168.77 1030.63 1171.78 1027.96 1173.57 1024.13C1177.45 1015.82 1176.45 1006.57 1173.16 998.316C1163.58 993.336 1151.56 991.863 1141.04 989.537C1145.09 988.976 1149.24 988.483 1153.34 988.613C1159.81 988.818 1173.13 991.791 1179 988.791C1182.25 987.129 1183.97 984.172 1184.96 980.755C1186.77 974.534 1186.82 966.858 1183.56 961.091C1177.39 950.171 1156.96 951.191 1145.95 947.795L1144.81 947.434C1155.13 945.402 1165.6 945.924 1176.07 946.059C1178.7 944.399 1181.47 942.833 1183.4 940.33C1187.09 935.532 1187.81 924.246 1186.86 918.376C1183.55 897.977 1151.11 905.579 1141.94 897.703C1141.76 897.549 1141.63 897.352 1141.47 897.176ZM467.696 18.8018C441.564 28.0339 411.788 76.606 400.028 101.171Q398.542 104.281 397.183 107.449C409.668 113.132 421.634 116.665 435.146 118.971C458.143 121.166 482.964 117.196 503.059 105.41C501.117 94.9051 498.639 84.5065 497.592 73.8604C495.959 57.2403 501.864 34.0685 485.608 22.804C480.208 19.0618 474.072 18.4553 467.696 18.8018ZM391.522 115.287C368.95 165.521 362.124 198.169 361.236 252.933C372.284 255.882 383.227 258.75 394.612 260.116C429.96 264.359 466.271 254.994 497.342 238.153C511.804 230.137 525.248 220.587 538.405 210.591Q528.392 187.359 520.142 163.444Q511.892 139.53 505.45 115.066C474.77 129.824 442.872 134.112 410.164 122.871C403.825 120.692 397.659 117.972 391.522 115.287ZM1085.45 128.301C1078 130.323 1074.16 136.081 1070.49 142.487C1059.14 162.323 1049.55 184.299 1034.1 201.395C1052.09 216.318 1071.25 228.099 1093.64 235.194C1107.41 239.612 1121.76 244.108 1136.26 245.012C1135.74 221.66 1131.14 153.046 1113.75 137.262C1106.33 130.525 1095.16 128.584 1085.45 128.301ZM1027.61 210.533C1011.73 231.728 985.379 256.875 965.422 274.883C970.96 285.463 976.608 295.767 983.581 305.503C1008.39 340.149 1045.78 370.744 1086.01 385.261C1096.42 388.951 1106.9 392.364 1117.69 394.767C1134.95 354.697 1136.74 297.942 1136.46 254.828C1106.3 252.659 1076.43 241.757 1050.76 225.964C1043.14 221.277 1035.69 214.168 1027.61 210.533ZM562.666 245.829C565.42 253.314 568.29 260.678 571.929 267.793L585.244 258.237L594.447 252.206Q578.678 248.415 562.666 245.829ZM336.581 412.477C294.883 431.986 249.549 460.523 215.859 491.998C210.454 497.049 202.901 503.309 200.396 510.379C195.994 522.806 207.245 546.413 212.99 557.255C216.956 564.739 221.532 571.766 226.358 578.712C235.532 590.156 243.924 596.624 256.871 603.375C270.963 555.984 286.449 509.072 308.44 464.67C314.325 452.788 320.559 440.942 327.289 429.518C330.446 424.158 334.758 418.951 337.373 413.376L336.581 412.477ZM1443.32 580.933C1430.14 598.829 1425.75 625.421 1421.32 646.866Q1419.43 655.982 1417.75 665.137Q1416.06 674.292 1414.58 683.482Q1413.09 692.672 1411.81 701.893Q1410.53 711.113 1409.45 720.36Q1408.37 729.606 1407.5 738.874Q1406.62 748.142 1405.95 757.427Q1405.28 766.712 1404.82 776.009Q1404.35 785.306 1404.09 794.612Q1403.83 803.917 1403.77 813.226Q1403.72 822.535 1403.86 831.843Q1404.01 841.15 1404.37 850.453Q1404.72 859.755 1405.28 869.047Q1405.83 878.34 1406.6 887.618Q1407.36 896.895 1408.32 906.154Q1409.29 915.413 1410.46 924.648Q1411.63 933.884 1413 943.091C1415.17 957.391 1416.78 976.302 1424.58 988.703C1427.06 988.516 1428.42 987.555 1430 985.628C1437.99 975.914 1441.28 958.355 1444.27 946.302C1461.59 876.411 1463.6 803.993 1462.35 732.345C1461.77 698.826 1460.79 664.911 1456.3 631.653C1454.67 619.54 1451.55 589.494 1443.32 580.933ZM222.433 618.838C211.192 623.106 204.518 627.989 198.541 638.623C196.723 641.858 195.286 644.738 192.678 647.487C196.989 650.084 200.791 652.86 204.647 656.094C191.68 654.78 181.136 655.748 170.701 664.305C165.014 668.97 161.793 674.307 159.861 681.334C160.991 685.709 162.291 689.391 164.274 693.454C153.743 696.847 143.86 701.146 138.59 711.661C134.922 718.982 134.136 727.39 136.824 735.148C141.171 747.694 151.116 759.834 158.539 770.864L163.81 778.409C188.675 763.984 212.373 748.257 233.09 728.167C240.678 720.808 247.335 712.62 254.745 705.128C251.742 696.056 248.091 686.702 246.092 677.373C244.487 669.883 244.979 662.245 243.904 654.713C242.634 645.804 235.861 622.11 226.521 618.824C225.338 618.408 223.634 618.708 222.433 618.838ZM1470.74 719.843C1471.09 744.69 1472.16 769.643 1471.28 794.489C1470.65 812.039 1468.15 829.665 1468.12 847.196C1473.14 842.589 1478.2 837.998 1482.2 832.438C1495.33 813.93 1499.38 789.515 1495.69 767.3C1493.42 753.627 1484.48 728.298 1472.01 720.508C1471.6 720.255 1471.16 720.065 1470.74 719.843ZM1053.67 852.865C1033.48 887.152 1001.99 902.747 968.17 919.778C979.767 918.183 991.716 915.819 1003.36 915.009L1038.01 909.806C1044.32 908.822 1050.86 907.346 1057.23 906.987L1060.21 918.833C1065.93 916.593 1071.62 914.442 1077.48 912.606C1078.25 899.942 1080.27 887.341 1080.95 874.697C1068.47 869.995 1061.84 863.081 1053.67 852.865ZM165.38 1135.84C151.397 1144.67 123.115 1165.35 113.605 1178.28C109.317 1219.75 130.302 1261.08 155.878 1292.48C170.475 1310.4 191.346 1334.17 215.397 1337.29C234.342 1338.36 249.9 1324.53 266.059 1316.24C258.058 1310.68 250.244 1305.16 243.2 1298.38C207.646 1264.15 185.231 1213.69 172.559 1166.74C171.19 1161.67 167.806 1138.13 165.38 1135.84ZM379.764 1291.83C340.565 1354.18 290.888 1397.25 217.473 1414Q204.82 1416.96 191.94 1418.69Q179.061 1420.42 166.074 1420.89C157.207 1421.29 148.157 1420.86 139.336 1421.7C137.344 1424.9 135.419 1427.85 134.23 1431.45L134.64 1432.93C143.166 1436.91 160.452 1436.62 170.16 1437.26C187.505 1437.82 205.051 1438.27 222.354 1436.69C273.688 1431.98 324.203 1411.12 361.971 1375.74C380.646 1358.25 403.213 1332.5 413.8 1309.23C402.33 1304.03 390.315 1298.73 379.764 1291.83ZM64.5752 1376.89C54.0892 1377.84 43.8928 1379.23 33.6577 1381.79C41.7156 1389.15 53.522 1399.49 54.315 1411.23C54.6526 1416.22 52.7974 1420.8 49.506 1424.51C41.5106 1433.53 27.6597 1438.22 16.7217 1442.63C34.1383 1456.12 52.7192 1467.54 74.8273 1470.98C91.4831 1472.93 107.121 1468.53 120.274 1458.01Q122.13 1456.53 123.869 1454.92Q125.608 1453.31 127.22 1451.57Q128.833 1449.83 130.309 1447.97Q131.786 1446.11 133.119 1444.15C130.257 1442.91 127.622 1442.12 126.367 1439.03C124.329 1434.01 126.329 1428.56 128.528 1423.97C130.174 1420.53 132.25 1417.26 134.411 1414.13C126.665 1398.53 114.009 1386.2 97.3025 1380.6C87.5449 1377.33 74.8114 1375.5 64.5752 1376.89Z"/>
	<path fill="#F7C418" d="M397.183 107.449Q398.542 104.281 400.028 101.171C411.788 76.606 441.564 28.0339 467.696 18.8018C474.072 18.4553 480.208 19.0618 485.608 22.804C501.864 34.0685 495.959 57.2403 497.592 73.8604C498.639 84.5065 501.117 94.9051 503.059 105.41C482.964 117.196 458.143 121.166 435.146 118.971C421.634 116.665 409.668 113.132 397.183 107.449Z"/>
	<path fill="#F7C418" d="M361.236 252.933C362.124 198.169 368.95 165.521 391.522 115.287C397.659 117.972 403.825 120.692 410.164 122.871C442.872 134.112 474.77 129.824 505.45 115.066Q511.892 139.53 520.142 163.444Q528.392 187.359 538.405 210.591C525.248 220.587 511.804 230.137 497.342 238.153C466.271 254.994 429.96 264.359 394.612 260.116C383.227 258.75 372.284 255.882 361.236 252.933Z"/>
	<path fill="#F7C418" d="M1034.1 201.395C1049.55 184.299 1059.14 162.323 1070.49 142.487C1074.16 136.081 1078 130.323 1085.45 128.301C1095.16 128.584 1106.33 130.525 1113.75 137.262C1131.14 153.046 1135.74 221.66 1136.26 245.012C1121.76 244.108 1107.41 239.612 1093.64 235.194C1071.25 228.099 1052.09 216.318 1034.1 201.395Z"/>
	<path fill="#F3D788" d="M576.854 228.656Q579.825 226.274 582.854 223.966Q585.883 221.658 588.967 219.424Q592.051 217.19 595.189 215.032Q598.327 212.874 601.516 210.793Q604.705 208.713 607.945 206.71Q611.184 204.708 614.471 202.785Q617.759 200.863 621.092 199.021Q624.425 197.179 627.802 195.419Q631.179 193.659 634.598 191.982Q638.017 190.304 641.476 188.711Q644.935 187.118 648.432 185.61Q651.929 184.101 655.462 182.679Q658.994 181.256 662.561 179.92Q666.127 178.584 669.725 177.336Q673.323 176.087 676.95 174.927Q680.577 173.766 684.232 172.695Q687.886 171.623 691.566 170.641Q695.245 169.659 698.948 168.767Q702.65 167.875 706.373 167.073Q710.096 166.272 713.838 165.561Q717.579 164.851 721.337 164.232Q725.095 163.613 728.867 163.086Q732.639 162.559 736.422 162.124Q740.206 161.689 743.999 161.347Q747.792 161.005 751.592 160.755Q755.392 160.505 759.197 160.348Q763.002 160.191 766.81 160.127Q770.618 160.063 774.427 160.092Q778.235 160.12 782.041 160.242Q785.848 160.364 789.65 160.578Q793.453 160.793 797.249 161.1Q801.045 161.407 804.832 161.807C845.813 166.429 884.259 179.204 922.299 194.703C884.886 215.957 858.189 243.634 846.648 286.32C843.197 299.082 841.936 312.555 842.329 325.754C845.32 315.957 848.205 305.771 852.041 296.284C858.16 298.181 864.391 299.919 870.281 302.454C870.84 308.138 871.896 313.11 874.208 318.393C874.064 318.56 873.917 318.723 873.776 318.892C870.239 323.139 868.062 328.462 865.18 333.163C858.337 344.325 849.329 354.972 839.465 363.583C794.067 403.215 726.754 408.295 670.423 421.292C647.675 426.541 623.951 433.649 602.762 443.534Q596.188 446.641 589.845 450.197Q583.503 453.753 577.424 457.742Q571.344 461.73 565.557 466.132Q559.769 470.534 554.302 475.327C556.246 470.486 557.902 466.122 558.145 460.837C568.095 432.663 589.384 401.14 615.542 386.23C624.76 381.282 633.918 379.767 644.148 378.421C605.025 365.859 562.899 352.184 521.215 358.458C508.99 360.298 497.187 364.176 485.403 367.801C489.155 360.005 494.14 352.678 498.974 345.518C504.618 339.511 509.519 332.216 514.866 325.868C521.765 317.677 529.405 310.177 536.991 302.632C541.879 299.709 546.724 294.957 551.296 291.448C557.619 286.595 564.297 282.253 570.604 277.371C574.469 275.513 578.136 273.142 582.226 271.785C605.438 264.089 634.953 270.78 658.303 275.947C664.747 278.672 686.565 282.749 694.963 284.942C688.826 278.948 682.889 272.562 676.341 267.023C656.181 249.967 631.623 239.232 606.03 233.497C598.117 231.724 584.397 231.213 577.945 229.046C577.579 228.923 577.218 228.786 576.854 228.656Z"/>
	<path fill="#F7C418" d="M965.422 274.883C985.379 256.875 1011.73 231.728 1027.61 210.533C1035.69 214.168 1043.14 221.277 1050.76 225.964C1076.43 241.757 1106.3 252.659 1136.46 254.828C1136.74 297.942 1134.95 354.697 1117.69 394.767C1106.9 392.364 1096.42 388.951 1086.01 385.261C1045.78 370.744 1008.39 340.149 983.581 305.503C976.608 295.767 970.96 285.463 965.422 274.883Z"/>
	<path fill="#F19C11" d="M541.502 220.66C545.338 228.382 562.761 274.016 565.982 277.06C566.763 277.798 569.489 277.386 570.604 277.371C564.297 282.253 557.619 286.595 551.296 291.448C546.724 294.957 541.879 299.709 536.991 302.632C530.234 303.098 504.782 313.551 496.302 316.349Q455.888 329.693 414.901 341.154C400.52 345.265 386.053 350.095 371.3 352.651C363.99 323.682 360.933 292.168 360.809 262.338C369.034 265.36 377.702 267.346 386.335 268.771C445.3 278.502 495.133 253.814 541.502 220.66Z"/>
	<path fill="#F19C11" d="M566.912 237.182L576.854 228.656C577.218 228.786 577.579 228.923 577.945 229.046C584.397 231.213 598.117 231.724 606.03 233.497C631.623 239.232 656.181 249.967 676.341 267.023C682.889 272.562 688.826 278.948 694.963 284.942C686.565 282.749 664.747 278.672 658.303 275.947C651.203 269.674 640.335 264.92 631.621 261.258C630.264 260.498 628.847 259.851 627.446 259.176C617.584 254.396 607.525 249.604 597.1 246.174C587.403 242.983 577.346 240.866 567.721 237.473L566.912 237.182Z"/>
	<path fill="#FEFEFE" d="M571.929 267.793C568.29 260.678 565.42 253.314 562.666 245.829Q578.678 248.415 594.447 252.206L585.244 258.237L571.929 267.793Z"/>
	<path fill="#054C2C" d="M627.446 259.176C628.847 259.851 630.264 260.498 631.621 261.258C627.032 263.354 615.667 261.046 610.123 261.224C603.675 261.431 597.189 262.34 590.74 262.782C596.199 259.77 601.737 256.976 607.334 254.228C613.936 255.502 620.845 258.807 627.446 259.176Z"/>
	<path fill="#F19C11" d="M911.96 326.543C925.969 316.296 945.017 294.398 957.234 281.295C964.551 293.363 971.706 305.434 980.255 316.69C1011.72 358.121 1055.91 388.912 1106.65 401.323Q1111.05 402.406 1115.48 403.37C1106.33 426.005 1095.32 449.874 1078.41 467.857C1067.3 464.801 1056.23 460.654 1046.07 455.231C1035.16 449.415 1025.22 442.019 1015.31 434.682C975.619 405.287 937.832 368.959 911.96 326.543Z"/>
	<path fill="#E48401" d="M371.3 352.651C386.053 350.095 400.52 345.265 414.901 341.154Q455.889 329.693 496.302 316.349C504.782 313.551 530.234 303.098 536.991 302.632C529.405 310.177 521.765 317.677 514.866 325.868C509.519 332.216 504.618 339.511 498.974 345.518C493.569 343.961 413.864 371.901 401.216 376.368C394.347 378.793 386.253 383.373 379.181 384.499C377.77 373.967 373.939 362.999 371.3 352.651Z"/>
	<path fill="#039F58" d="M870.281 302.454C884.097 307.782 898.642 312.8 911.523 320.192L908.173 328.773C907.128 333.582 910.098 339.295 911.837 343.719C920.948 366.903 927.259 390.138 929.57 415.058Q935.28 417.097 940.9 419.374Q946.52 421.65 952.04 424.159Q957.56 426.668 962.97 429.406Q968.381 432.143 973.672 435.104Q978.963 438.066 984.125 441.245Q989.288 444.425 994.313 447.818Q999.338 451.211 1004.22 454.811Q1009.1 458.41 1013.82 462.211C1026.23 472.379 1037.72 483.668 1050.2 493.736C1052.73 492.334 1055.39 491.021 1057.83 489.484L1066.19 490.961Q1069.78 488.212 1073.18 485.223Q1076.57 482.234 1079.75 479.018Q1082.94 475.802 1085.89 472.375Q1088.84 468.947 1091.55 465.325C1101.79 477.492 1113.57 488.263 1123.72 500.575Q1131.87 510.358 1139.62 520.46Q1147.38 530.561 1154.72 540.964Q1162.06 551.368 1168.98 562.057Q1175.9 572.745 1182.39 583.702Q1188.88 594.659 1194.92 605.867Q1200.97 617.075 1206.56 628.515Q1212.15 639.956 1217.27 651.611Q1222.4 663.265 1227.06 675.116Q1207.18 675.103 1187.31 675.65C1178.52 640.966 1119.11 555.915 1088.42 538.219C1085.22 536.369 1080.28 533.968 1076.45 535.077C1074.66 535.595 1073.3 536.713 1071.98 537.967C1077.84 576.765 1082.01 643.161 1075.1 681.267C1060.49 693.37 1049.64 706.807 1042.77 724.656C1027.93 763.22 1031.63 809.366 1048.06 846.679C1025.01 879.893 992.533 902.236 954.764 915.704C914.567 930.038 870.057 935.896 827.693 938.963C684.561 949.323 577.508 924.06 448.487 862.723C403.963 841.557 364.68 817.091 325.4 787.402C313.894 778.705 300.956 769.752 291.83 758.48C279.452 743.191 270.349 722.391 263.805 703.867C258.955 690.138 253.575 674.404 253.821 659.775C254.171 638.948 261.851 616.851 267.533 596.953C280.969 549.897 295.671 500.807 316.777 456.577C321.102 447.513 325.78 438.486 330.962 429.88C335.399 422.514 340.537 415.276 344.177 407.483C344.308 407.203 344.432 406.92 344.56 406.638C342.378 407.101 340.178 407.599 338.071 408.341C308.708 418.669 210.539 479.452 197.988 507.128C193.429 517.183 198.98 532.394 202.81 541.972C210.532 561.286 222.094 584.297 239.271 596.663C244.532 600.45 250.224 602.905 256.156 605.465C252.441 618.358 249.508 631.516 246.743 644.64C243.397 634.964 238.528 619.314 228.843 614.237C224.53 611.977 219.797 612.387 215.358 614.046C203.903 618.328 195.473 626.783 190.618 637.846C185.324 629.958 181.647 620.913 177.906 612.211C163.219 578.054 154.776 543.472 148.037 507.044C190.929 452.142 245.471 409.06 305.02 373.479C322.639 362.952 341.002 351.958 360.608 345.626C363.033 355.418 365.773 365.137 370.57 374.079C372.377 377.445 375.433 383.347 379.181 384.499C386.253 383.373 394.347 378.793 401.216 376.368C413.864 371.901 493.569 343.961 498.974 345.518C494.14 352.678 489.155 360.005 485.403 367.801C482.757 372.474 480.297 377.219 477.871 382.01C519.658 371.927 555.585 371.177 597.414 381.523C603.371 382.997 609.766 384.185 615.542 386.23C589.384 401.14 568.095 432.663 558.145 460.837Q551.12 476.933 546.558 493.891C571.349 476.043 600.048 460.862 629.346 451.981C696.347 431.672 789.992 436.788 840.79 384.016C853.39 370.926 874.474 336.844 874.208 318.393C871.896 313.11 870.84 308.138 870.281 302.454ZM474.617 470.586C450.593 473.648 427.925 485.701 413.087 505.03C395.704 527.675 388.225 554.323 392.181 582.678Q392.338 583.785 392.521 584.888Q392.705 585.991 392.916 587.09Q393.126 588.188 393.363 589.281Q393.601 590.374 393.865 591.461Q394.128 592.547 394.419 593.627Q394.709 594.707 395.026 595.78Q395.342 596.852 395.685 597.917Q396.027 598.981 396.396 600.037Q396.765 601.093 397.159 602.14Q397.553 603.186 397.973 604.223Q398.392 605.259 398.837 606.286Q399.282 607.312 399.751 608.326Q400.221 609.341 400.715 610.345Q401.21 611.348 401.728 612.338Q402.247 613.329 402.79 614.307Q403.332 615.285 403.899 616.249Q404.465 617.214 405.055 618.164Q405.645 619.114 406.257 620.05Q406.87 620.985 407.506 621.906Q408.141 622.826 408.799 623.73Q409.456 624.635 410.136 625.523Q410.816 626.411 411.517 627.283Q412.218 628.154 412.94 629.008Q413.662 629.862 414.405 630.699Q415.147 631.535 415.91 632.353Q416.673 633.17 417.456 633.969Q418.238 634.768 419.04 635.548Q419.842 636.328 420.663 637.087Q421.484 637.847 422.322 638.587Q423.161 639.326 424.018 640.045Q424.875 640.764 425.749 641.462Q426.623 642.16 427.514 642.836Q429.005 643.938 430.547 644.97Q432.088 646.002 433.676 646.961Q435.263 647.919 436.894 648.803Q438.524 649.687 440.194 650.494Q441.864 651.301 443.57 652.029Q445.276 652.757 447.014 653.405Q448.752 654.053 450.518 654.619Q452.284 655.185 454.075 655.669Q455.865 656.152 457.676 656.552Q459.488 656.951 461.316 657.266Q463.143 657.58 464.984 657.809Q466.825 658.038 468.674 658.182Q470.523 658.325 472.377 658.381Q474.231 658.438 476.085 658.409Q477.94 658.379 479.791 658.263Q481.642 658.147 483.486 657.945C509.143 653.89 530.207 642.115 545.727 621.007Q546.493 619.966 547.233 618.907Q547.973 617.847 548.686 616.77Q549.399 615.693 550.086 614.598Q550.772 613.503 551.431 612.391Q552.09 611.28 552.722 610.152Q553.353 609.025 553.956 607.882Q554.559 606.739 555.134 605.582Q555.708 604.424 556.254 603.253Q556.8 602.082 557.316 600.897Q557.833 599.713 558.319 598.516Q558.806 597.319 559.263 596.11Q559.72 594.902 560.147 593.682Q560.574 592.463 560.971 591.233Q561.368 590.003 561.734 588.764Q562.099 587.525 562.434 586.277Q562.77 585.029 563.074 583.773Q563.378 582.517 563.65 581.254Q563.923 579.991 564.164 578.722Q564.406 577.452 564.616 576.177Q564.825 574.902 565.003 573.622Q565.182 572.343 565.328 571.059Q565.474 569.775 565.589 568.488Q565.703 567.201 565.785 565.911Q565.868 564.622 565.918 563.331Q565.969 562.039 565.987 560.747Q566.005 559.455 565.992 558.163Q565.978 556.871 565.932 555.58Q565.886 554.289 565.809 552.999Q565.731 551.709 565.621 550.422Q565.511 549.134 565.37 547.85Q565.228 546.566 565.055 545.285Q564.881 544.005 564.676 542.729C561.036 519.992 548.409 496.926 529.502 483.359C514.26 472.421 493.127 468.074 474.617 470.586ZM874.868 554.988C850.437 557.65 831.739 566.984 816.292 586.412Q815.547 587.342 814.826 588.29Q814.104 589.238 813.406 590.204Q812.708 591.17 812.035 592.152Q811.361 593.135 810.712 594.134Q810.062 595.133 809.438 596.148Q808.814 597.162 808.214 598.192Q807.615 599.222 807.042 600.266Q806.468 601.311 805.921 602.369Q805.373 603.427 804.852 604.498Q804.331 605.57 803.837 606.654Q803.342 607.738 802.875 608.834Q802.407 609.929 801.967 611.036Q801.527 612.143 801.114 613.261Q800.701 614.379 800.316 615.506Q799.931 616.634 799.574 617.77Q799.217 618.907 798.888 620.052Q798.559 621.197 798.259 622.35Q797.959 623.503 797.687 624.663Q797.415 625.823 797.172 626.989Q796.929 628.155 796.715 629.327Q796.501 630.499 796.316 631.676Q796.131 632.853 795.975 634.034Q795.819 635.215 795.692 636.4Q795.565 637.585 795.468 638.772Q795.371 639.959 795.303 641.149Q795.235 642.338 795.196 643.529Q795.158 644.72 795.149 645.911Q795.14 647.102 795.16 648.294Q795.181 649.485 795.23 650.675Q795.28 651.865 795.359 653.054Q795.439 654.243 795.547 655.429Q795.656 656.616 795.794 657.799Q795.925 658.951 796.086 660.099Q796.246 661.247 796.434 662.391Q796.623 663.534 796.84 664.673Q797.058 665.812 797.303 666.944Q797.549 668.077 797.823 669.204Q798.097 670.33 798.399 671.449Q798.701 672.568 799.031 673.68Q799.361 674.791 799.719 675.893Q800.076 676.996 800.461 678.089Q800.846 679.183 801.259 680.266Q801.671 681.349 802.11 682.422Q802.55 683.495 803.016 684.556Q803.482 685.618 803.974 686.667Q804.466 687.717 804.985 688.753Q805.503 689.79 806.048 690.814Q806.592 691.837 807.161 692.847Q807.731 693.856 808.326 694.851Q808.921 695.847 809.54 696.826Q810.16 697.806 810.804 698.77Q811.447 699.734 812.115 700.682Q812.783 701.63 813.474 702.56Q814.165 703.491 814.879 704.404Q815.594 705.317 816.33 706.212Q817.067 707.107 817.826 707.983Q818.585 708.86 819.366 709.717Q820.147 710.574 820.948 711.411Q821.75 712.248 822.573 713.065Q823.396 713.882 824.238 714.678Q825.081 715.474 825.943 716.249Q826.806 717.024 827.687 717.777Q828.569 718.53 829.469 719.26Q830.369 719.991 831.287 720.699C848.381 734.039 867.238 739.005 888.665 738.08C914.168 734.735 933.736 724.4 949.641 703.855C965.349 683.564 970.965 658.86 967.533 633.595C964.017 607.708 952.691 586.052 931.575 570.194C916.009 558.505 894.342 552.175 874.868 554.988ZM582.697 664.416C561.34 665.377 535.358 666.443 519.978 683.553C498.839 707.068 496.819 772.612 498.757 803.733C500.342 829.202 505.502 853.183 525.447 870.732C556.553 898.102 649.555 918.219 689.568 915.415Q701.251 914.482 712.718 912.062C742.132 902.749 756.628 881.122 770.318 854.753C782.795 830.719 804.951 773.14 796.925 747.644C789.968 725.546 764.548 710.432 745.119 700.837C698.624 677.874 634.585 662.609 582.697 664.416Z"/>
	<path fill="#F19C11" d="M874.208 318.393C874.474 336.844 853.39 370.926 840.79 384.016C789.992 436.788 696.347 431.672 629.346 451.981C600.048 460.862 571.349 476.043 546.558 493.891Q551.12 476.933 558.145 460.837C557.902 466.122 556.246 470.486 554.302 475.327Q559.769 470.534 565.557 466.132Q571.344 461.73 577.424 457.742Q583.503 453.753 589.845 450.197Q596.188 446.641 602.762 443.534C623.951 433.649 647.675 426.541 670.423 421.292C726.754 408.295 794.067 403.215 839.465 363.583C849.329 354.972 858.337 344.325 865.18 333.163C868.062 328.462 870.239 323.139 873.776 318.892C873.917 318.723 874.064 318.56 874.208 318.393Z"/>
	<path fill="#E48401" d="M908.173 328.773L911.96 326.543C937.832 368.959 975.619 405.287 1015.31 434.682C1025.22 442.019 1035.16 449.415 1046.07 455.231C1056.23 460.654 1067.3 464.801 1078.41 467.857Q1068.37 478.912 1057.83 489.484C1055.39 491.021 1052.73 492.334 1050.2 493.736C1037.72 483.668 1026.23 472.379 1013.82 462.211Q1009.1 458.41 1004.22 454.811Q999.338 451.211 994.313 447.818Q989.288 444.425 984.125 441.246Q978.963 438.066 973.672 435.104Q968.381 432.143 962.97 429.406Q957.56 426.668 952.04 424.159Q946.52 421.65 940.9 419.374Q935.28 417.097 929.57 415.058C927.259 390.138 920.948 366.903 911.837 343.719C910.098 339.295 907.128 333.582 908.173 328.773Z"/>
	<path fill="#F7C418" d="M477.871 382.01C480.297 377.219 482.757 372.474 485.403 367.801C497.187 364.176 508.99 360.298 521.215 358.458C562.899 352.184 605.025 365.859 644.148 378.421C633.918 379.767 624.76 381.282 615.542 386.23C609.766 384.185 603.371 382.997 597.414 381.523C555.585 371.177 519.658 371.927 477.871 382.01Z"/>
	<path fill="#0E7628" d="M226.358 578.712C221.532 571.766 216.956 564.739 212.99 557.255C207.245 546.413 195.994 522.806 200.396 510.379C202.901 503.309 210.454 497.049 215.859 491.998C249.549 460.523 294.883 431.986 336.581 412.477L337.373 413.376C334.758 418.951 330.446 424.158 327.289 429.518C320.559 440.942 314.325 452.788 308.44 464.67C286.449 509.072 270.963 555.984 256.871 603.375C243.924 596.624 235.532 590.156 226.358 578.712Z"/>
	<path fill="#FEFEFE" d="M483.486 657.945Q481.642 658.147 479.791 658.263Q477.94 658.379 476.085 658.409Q474.231 658.438 472.377 658.381Q470.523 658.325 468.674 658.182Q466.825 658.038 464.984 657.809Q463.143 657.58 461.316 657.266Q459.488 656.951 457.677 656.552Q455.865 656.152 454.075 655.669Q452.284 655.185 450.518 654.619Q448.752 654.053 447.014 653.405Q445.276 652.757 443.57 652.029Q441.864 651.301 440.194 650.494Q438.524 649.687 436.894 648.803Q435.263 647.919 433.676 646.961Q432.088 646.002 430.547 644.97Q429.005 643.938 427.514 642.836Q426.623 642.16 425.749 641.462Q424.875 640.764 424.018 640.045Q423.161 639.326 422.322 638.587Q421.483 637.847 420.663 637.087Q419.842 636.328 419.04 635.548Q418.238 634.768 417.456 633.969Q416.673 633.17 415.91 632.353Q415.147 631.535 414.405 630.698Q413.662 629.862 412.94 629.008Q412.218 628.154 411.517 627.283Q410.816 626.411 410.136 625.523Q409.456 624.635 408.799 623.73Q408.141 622.826 407.506 621.906Q406.87 620.985 406.257 620.05Q405.645 619.114 405.055 618.164Q404.465 617.214 403.899 616.249Q403.332 615.285 402.79 614.307Q402.247 613.329 401.728 612.338Q401.21 611.348 400.715 610.345Q400.221 609.341 399.751 608.326Q399.282 607.312 398.837 606.285Q398.392 605.259 397.973 604.223Q397.553 603.186 397.159 602.14Q396.765 601.093 396.396 600.037Q396.027 598.981 395.685 597.917Q395.342 596.852 395.026 595.78Q394.709 594.707 394.419 593.627Q394.128 592.547 393.865 591.461Q393.601 590.374 393.363 589.281Q393.126 588.188 392.916 587.09Q392.705 585.991 392.521 584.888Q392.338 583.785 392.181 582.678C388.225 554.323 395.704 527.675 413.087 505.03C427.925 485.701 450.593 473.648 474.617 470.586C493.127 468.074 514.26 472.421 529.502 483.359C548.409 496.926 561.036 519.992 564.676 542.729Q564.881 544.005 565.055 545.285Q565.228 546.566 565.37 547.85Q565.511 549.134 565.621 550.422Q565.731 551.709 565.809 552.999Q565.886 554.289 565.932 555.58Q565.978 556.871 565.992 558.164Q566.005 559.456 565.987 560.747Q565.969 562.04 565.918 563.331Q565.868 564.622 565.785 565.911Q565.703 567.201 565.589 568.488Q565.474 569.775 565.328 571.059Q565.182 572.343 565.003 573.622Q564.825 574.902 564.616 576.177Q564.406 577.452 564.164 578.721Q563.923 579.991 563.65 581.254Q563.378 582.517 563.074 583.773Q562.77 585.029 562.434 586.277Q562.099 587.525 561.734 588.764Q561.368 590.003 560.971 591.233Q560.574 592.463 560.147 593.682Q559.72 594.902 559.263 596.11Q558.806 597.319 558.319 598.516Q557.833 599.713 557.316 600.897Q556.8 602.082 556.254 603.253Q555.708 604.424 555.134 605.582Q554.559 606.739 553.956 607.882Q553.353 609.025 552.722 610.152Q552.09 611.28 551.431 612.391Q550.772 613.503 550.086 614.598Q549.399 615.693 548.686 616.77Q547.973 617.847 547.233 618.907Q546.493 619.966 545.727 621.007C530.207 642.115 509.143 653.89 483.486 657.945ZM473.462 477.587Q472.386 477.775 471.315 477.99Q470.244 478.205 469.179 478.446Q468.113 478.688 467.054 478.955Q465.995 479.222 464.943 479.516Q463.891 479.809 462.846 480.128Q461.801 480.447 460.765 480.792Q459.728 481.137 458.701 481.507Q457.673 481.877 456.655 482.273Q455.636 482.668 454.628 483.089Q453.62 483.509 452.622 483.954Q451.625 484.399 450.639 484.869Q449.652 485.338 448.678 485.832Q447.704 486.326 446.742 486.843Q445.78 487.361 444.831 487.902Q443.882 488.443 442.947 489.007Q442.012 489.572 441.091 490.159Q440.169 490.746 439.263 491.356Q438.357 491.965 437.466 492.597Q436.575 493.229 435.7 493.882Q434.825 494.536 433.966 495.211Q433.107 495.886 432.265 496.582Q431.423 497.278 430.599 497.994Q429.774 498.71 428.967 499.447Q428.161 500.183 427.373 500.939Q426.584 501.695 425.815 502.471Q425.046 503.246 424.296 504.04Q423.546 504.834 422.816 505.646Q422.085 506.459 421.375 507.289Q420.665 508.119 419.976 508.966Q419.287 509.813 418.619 510.677Q417.95 511.541 417.304 512.421Q416.657 513.301 416.032 514.197Q415.37 515.142 414.731 516.104Q414.093 517.065 413.479 518.042Q412.864 519.019 412.274 520.011Q411.685 521.003 411.119 522.009Q410.554 523.016 410.014 524.036Q409.474 525.056 408.96 526.089Q408.445 527.122 407.957 528.167Q407.468 529.213 407.006 530.27Q406.543 531.327 406.107 532.396Q405.671 533.464 405.261 534.543Q404.852 535.622 404.469 536.711Q404.087 537.8 403.731 538.898Q403.376 539.996 403.048 541.102Q402.72 542.209 402.419 543.323Q402.119 544.437 401.846 545.558Q401.573 546.68 401.328 547.808Q401.083 548.935 400.867 550.069Q400.65 551.202 400.461 552.341Q400.273 553.479 400.112 554.622Q399.952 555.765 399.82 556.912Q399.689 558.058 399.585 559.207Q399.482 560.357 399.407 561.508Q399.332 562.66 399.286 563.813Q399.24 564.966 399.223 566.12Q399.205 567.274 399.216 568.428Q399.228 569.582 399.267 570.735Q399.307 571.889 399.376 573.041Q399.444 574.193 399.541 575.343Q399.638 576.492 399.763 577.64Q399.889 578.787 400.043 579.93Q400.197 581.074 400.379 582.214Q400.561 583.353 400.772 584.488C404.761 606.264 416.537 625.177 434.88 637.752C449.559 647.815 468.413 651.773 485.978 649.235C507.611 645.869 527.528 632.375 540.346 614.856Q541.043 613.904 541.716 612.936Q542.389 611.967 543.039 610.982Q543.688 609.997 544.313 608.997Q544.938 607.996 545.538 606.981Q546.138 605.965 546.713 604.935Q547.288 603.906 547.838 602.862Q548.387 601.818 548.911 600.761Q549.435 599.704 549.932 598.635Q550.43 597.565 550.901 596.484Q551.372 595.402 551.817 594.31Q552.261 593.217 552.679 592.114Q553.096 591.011 553.487 589.898Q553.877 588.785 554.24 587.662Q554.603 586.54 554.938 585.409Q555.273 584.278 555.58 583.139Q555.888 582.001 556.167 580.855Q556.446 579.709 556.697 578.556Q556.948 577.404 557.171 576.245Q557.394 575.087 557.588 573.923Q557.782 572.76 557.947 571.592Q558.113 570.424 558.25 569.253Q558.386 568.081 558.494 566.906Q558.602 565.732 558.681 564.555Q558.76 563.378 558.81 562.2Q558.861 561.021 558.882 559.842Q558.903 558.663 558.895 557.483Q558.887 556.304 558.851 555.125Q558.814 553.946 558.748 552.768Q558.682 551.59 558.588 550.415Q558.493 549.239 558.37 548.066Q558.246 546.893 558.094 545.723Q557.942 544.554 557.761 543.388C554.497 522.777 541.826 501.928 524.769 489.824C509.761 479.175 491.579 475.546 473.462 477.587Z"/>
	<path fill="#0C0501" d="M485.978 649.235C468.413 651.773 449.559 647.815 434.88 637.752C416.537 625.177 404.761 606.264 400.772 584.488Q400.561 583.353 400.379 582.214Q400.197 581.074 400.043 579.93Q399.889 578.787 399.763 577.64Q399.638 576.492 399.541 575.342Q399.444 574.193 399.376 573.04Q399.307 571.888 399.267 570.735Q399.228 569.582 399.216 568.428Q399.205 567.274 399.223 566.12Q399.24 564.966 399.286 563.813Q399.333 562.66 399.407 561.508Q399.482 560.357 399.585 559.207Q399.689 558.058 399.82 556.911Q399.952 555.765 400.112 554.622Q400.273 553.479 400.461 552.341Q400.65 551.202 400.867 550.069Q401.083 548.935 401.328 547.808Q401.573 546.68 401.846 545.558Q402.119 544.437 402.419 543.323Q402.72 542.209 403.048 541.102Q403.376 539.996 403.731 538.898Q404.087 537.8 404.469 536.711Q404.852 535.622 405.261 534.543Q405.671 533.464 406.107 532.396Q406.543 531.327 407.006 530.27Q407.468 529.213 407.957 528.167Q408.445 527.122 408.96 526.089Q409.474 525.055 410.014 524.036Q410.554 523.016 411.119 522.009Q411.685 521.003 412.274 520.011Q412.864 519.019 413.479 518.042Q414.093 517.065 414.731 516.104Q415.37 515.142 416.032 514.197Q416.657 513.301 417.304 512.421Q417.95 511.541 418.619 510.677Q419.287 509.813 419.976 508.966Q420.665 508.119 421.375 507.289Q422.085 506.459 422.816 505.646Q423.546 504.834 424.296 504.04Q425.046 503.246 425.815 502.471Q426.584 501.695 427.373 500.939Q428.161 500.183 428.967 499.447Q429.774 498.71 430.599 497.994Q431.423 497.277 432.265 496.582Q433.107 495.886 433.966 495.211Q434.825 494.536 435.7 493.882Q436.575 493.229 437.466 492.597Q438.357 491.965 439.263 491.356Q440.17 490.746 441.091 490.159Q442.012 489.572 442.947 489.007Q443.882 488.443 444.831 487.902Q445.78 487.361 446.742 486.843Q447.704 486.326 448.678 485.832Q449.652 485.338 450.639 484.869Q451.625 484.399 452.623 483.954Q453.62 483.509 454.628 483.089Q455.636 482.668 456.655 482.273Q457.673 481.877 458.701 481.507Q459.728 481.137 460.765 480.792Q461.801 480.447 462.846 480.128Q463.891 479.809 464.943 479.516Q465.995 479.222 467.054 478.955Q468.113 478.688 469.179 478.446Q470.244 478.205 471.315 477.99Q472.386 477.775 473.462 477.587C491.579 475.546 509.761 479.175 524.769 489.824C541.826 501.928 554.497 522.777 557.761 543.388Q557.942 544.554 558.094 545.723Q558.246 546.893 558.37 548.066Q558.493 549.239 558.588 550.415Q558.682 551.591 558.748 552.768Q558.814 553.946 558.851 555.125Q558.887 556.304 558.895 557.483Q558.903 558.663 558.882 559.842Q558.861 561.021 558.81 562.2Q558.76 563.378 558.681 564.555Q558.602 565.732 558.494 566.907Q558.386 568.081 558.25 569.253Q558.113 570.424 557.947 571.592Q557.782 572.76 557.588 573.923Q557.394 575.087 557.171 576.245Q556.948 577.404 556.697 578.556Q556.446 579.709 556.167 580.855Q555.888 582.001 555.58 583.139Q555.273 584.278 554.938 585.409Q554.603 586.54 554.24 587.662Q553.877 588.785 553.487 589.898Q553.096 591.011 552.679 592.114Q552.261 593.217 551.817 594.31Q551.372 595.402 550.901 596.484Q550.43 597.565 549.932 598.635Q549.435 599.704 548.911 600.761Q548.387 601.818 547.838 602.862Q547.288 603.906 546.713 604.935Q546.138 605.965 545.538 606.981Q544.938 607.996 544.313 608.997Q543.688 609.997 543.039 610.982Q542.389 611.967 541.716 612.936Q541.043 613.904 540.346 614.856C527.528 632.375 507.611 645.869 485.978 649.235ZM488.206 507.94C478.015 510.586 469.423 515.652 464.021 525.014C458.788 534.084 457.814 545.771 460.741 555.791Q460.994 556.656 461.29 557.507Q461.587 558.358 461.928 559.193Q462.268 560.027 462.651 560.843Q463.034 561.659 463.459 562.454Q463.883 563.249 464.348 564.021Q464.813 564.793 465.318 565.54Q465.822 566.287 466.364 567.007Q466.906 567.727 467.485 568.418Q468.063 569.109 468.677 569.77Q469.29 570.43 469.937 571.058Q470.584 571.686 471.262 572.28Q471.94 572.873 472.648 573.431Q473.356 573.989 474.092 574.51Q474.828 575.03 475.59 575.512Q476.352 575.994 477.137 576.436Q477.923 576.878 478.73 577.279C486.234 581.067 494.129 581.668 502.308 580.283C512.516 577.23 520.87 571.262 525.919 561.659C530.772 552.43 531.156 540.72 527.788 530.895C524.804 522.189 519.077 514.843 510.705 510.768C503.329 507.177 496.123 507.243 488.206 507.94Z"/>
	<path fill="#FEFEFE" d="M502.308 580.283C494.129 581.668 486.234 581.067 478.73 577.279Q477.923 576.878 477.137 576.436Q476.352 575.994 475.59 575.512Q474.828 575.03 474.092 574.51Q473.356 573.989 472.648 573.431Q471.94 572.873 471.262 572.28Q470.584 571.686 469.937 571.058Q469.29 570.43 468.677 569.77Q468.063 569.109 467.485 568.418Q466.906 567.727 466.364 567.007Q465.822 566.287 465.318 565.54Q464.813 564.793 464.348 564.021Q463.883 563.249 463.459 562.454Q463.034 561.659 462.651 560.843Q462.268 560.027 461.928 559.193Q461.587 558.358 461.29 557.507Q460.994 556.656 460.741 555.791C457.814 545.771 458.788 534.084 464.021 525.014C469.423 515.652 478.015 510.586 488.206 507.94C496.123 507.243 503.329 507.177 510.705 510.768C519.077 514.843 524.804 522.189 527.788 530.895C531.156 540.72 530.772 552.43 525.919 561.659C520.87 571.262 512.516 577.23 502.308 580.283Z"/>
	<path fill="#0E7628" d="M1075.1 681.267C1082.01 643.161 1077.84 576.765 1071.98 537.967L1073.46 539.932C1075.61 540.021 1078.26 539.371 1080.31 539.879C1090.75 542.464 1103.42 557.355 1110.62 565.194C1138.94 596.037 1165.39 636.904 1182.39 675.221C1162.11 676.206 1141.67 675.775 1121.37 675.702C1111.04 675.664 1100.04 674.835 1089.82 676.55C1084.71 677.407 1079.88 679.332 1075.1 681.267Z"/>
	<path fill="#FEFEFE" d="M888.665 738.08C867.238 739.005 848.381 734.039 831.287 720.699Q830.369 719.991 829.469 719.26Q828.569 718.53 827.687 717.777Q826.806 717.024 825.943 716.249Q825.081 715.474 824.238 714.678Q823.396 713.882 822.573 713.065Q821.75 712.248 820.949 711.411Q820.147 710.574 819.366 709.717Q818.585 708.86 817.826 707.983Q817.067 707.107 816.33 706.212Q815.594 705.317 814.879 704.404Q814.165 703.491 813.474 702.56Q812.783 701.63 812.115 700.682Q811.447 699.734 810.804 698.77Q810.16 697.806 809.54 696.826Q808.921 695.847 808.326 694.851Q807.731 693.856 807.162 692.847Q806.592 691.837 806.048 690.814Q805.503 689.79 804.985 688.753Q804.467 687.717 803.974 686.667Q803.482 685.618 803.016 684.556Q802.55 683.495 802.11 682.422Q801.671 681.349 801.259 680.266Q800.846 679.183 800.461 678.089Q800.076 676.996 799.719 675.893Q799.361 674.791 799.031 673.68Q798.701 672.568 798.399 671.449Q798.097 670.33 797.823 669.204Q797.549 668.077 797.303 666.944Q797.058 665.812 796.84 664.673Q796.623 663.534 796.434 662.391Q796.246 661.247 796.086 660.099Q795.925 658.951 795.794 657.799Q795.656 656.616 795.547 655.429Q795.439 654.243 795.36 653.054Q795.28 651.865 795.23 650.675Q795.181 649.485 795.16 648.294Q795.14 647.102 795.149 645.911Q795.158 644.72 795.196 643.529Q795.235 642.338 795.303 641.149Q795.371 639.959 795.468 638.772Q795.565 637.585 795.692 636.4Q795.819 635.215 795.975 634.034Q796.131 632.853 796.316 631.676Q796.501 630.499 796.715 629.327Q796.929 628.155 797.172 626.989Q797.415 625.823 797.687 624.663Q797.959 623.503 798.259 622.35Q798.559 621.197 798.888 620.052Q799.217 618.907 799.574 617.77Q799.931 616.634 800.316 615.506Q800.701 614.379 801.114 613.261Q801.527 612.143 801.967 611.036Q802.407 609.929 802.875 608.834Q803.342 607.738 803.837 606.654Q804.331 605.57 804.852 604.498Q805.373 603.427 805.921 602.369Q806.468 601.311 807.042 600.266Q807.615 599.222 808.214 598.192Q808.814 597.162 809.438 596.148Q810.062 595.133 810.712 594.134Q811.361 593.135 812.035 592.152Q812.708 591.17 813.406 590.204Q814.104 589.238 814.826 588.29Q815.547 587.342 816.292 586.412C831.739 566.984 850.437 557.65 874.868 554.988C894.342 552.175 916.009 558.505 931.575 570.194C952.691 586.052 964.017 607.708 967.533 633.595C970.965 658.86 965.349 683.564 949.641 703.855C933.736 724.4 914.168 734.735 888.665 738.08ZM877.537 562.807C853.807 565.36 835.907 575.586 820.925 594.197C806.759 611.793 801.03 635.286 803.656 657.576Q803.776 658.605 803.922 659.63Q804.067 660.656 804.238 661.677Q804.409 662.699 804.606 663.716Q804.802 664.733 805.024 665.745Q805.245 666.756 805.492 667.762Q805.738 668.768 806.01 669.768Q806.281 670.768 806.577 671.76Q806.873 672.753 807.194 673.738Q807.515 674.722 807.86 675.699Q808.205 676.676 808.574 677.644Q808.943 678.611 809.336 679.57Q809.729 680.528 810.146 681.476Q810.562 682.425 811.002 683.362Q811.442 684.3 811.905 685.227Q812.369 686.153 812.855 687.068Q813.341 687.982 813.849 688.885Q814.358 689.787 814.888 690.677Q815.419 691.566 815.972 692.442Q816.525 693.318 817.099 694.18Q817.673 695.043 818.269 695.89Q818.864 696.738 819.48 697.57Q820.096 698.403 820.733 699.22Q821.37 700.037 822.027 700.838Q822.684 701.639 823.36 702.423Q824.036 703.208 824.732 703.975Q825.428 704.743 826.143 705.493Q826.857 706.243 827.59 706.975Q828.323 707.707 829.074 708.42Q829.825 709.134 830.593 709.829Q831.362 710.523 832.147 711.199Q832.932 711.875 833.734 712.53Q834.536 713.186 835.354 713.822C851.437 726.513 869.228 730.706 889.412 729.661C912.003 726.601 929.764 717.139 943.645 698.726Q944.278 697.885 944.89 697.029Q945.502 696.173 946.092 695.303Q946.683 694.432 947.252 693.547Q947.821 692.662 948.369 691.764Q948.916 690.865 949.441 689.953Q949.966 689.041 950.468 688.117Q950.971 687.192 951.45 686.256Q951.93 685.319 952.386 684.371Q952.843 683.423 953.276 682.464Q953.709 681.505 954.118 680.536Q954.527 679.567 954.913 678.588Q955.298 677.609 955.659 676.621Q956.021 675.633 956.357 674.636Q956.694 673.639 957.007 672.634Q957.319 671.63 957.606 670.618Q957.894 669.605 958.156 668.587Q958.419 667.568 958.656 666.543Q958.893 665.518 959.106 664.487Q959.318 663.457 959.505 662.421Q959.691 661.386 959.853 660.346Q960.014 659.307 960.15 658.263Q960.285 657.22 960.395 656.174Q960.505 655.127 960.59 654.079Q960.674 653.03 960.732 651.979Q960.791 650.929 960.823 649.877Q960.856 648.826 960.863 647.774Q960.87 646.722 960.851 645.67Q960.832 644.618 960.787 643.567Q960.742 642.515 960.672 641.466Q960.601 640.416 960.504 639.368Q960.408 638.321 960.286 637.276Q960.164 636.231 960.016 635.189C956.665 611.963 946.262 590.879 927.095 576.795C912.552 566.109 895.483 561.464 877.537 562.807Z"/>
	<path fill="#0C0501" d="M889.412 729.661C869.228 730.706 851.437 726.513 835.354 713.822Q834.536 713.186 833.734 712.53Q832.932 711.875 832.147 711.199Q831.362 710.523 830.593 709.829Q829.825 709.134 829.074 708.42Q828.323 707.707 827.59 706.975Q826.857 706.243 826.143 705.493Q825.428 704.743 824.732 703.975Q824.037 703.208 823.36 702.423Q822.684 701.639 822.027 700.838Q821.37 700.037 820.733 699.22Q820.097 698.403 819.48 697.57Q818.864 696.738 818.269 695.89Q817.673 695.043 817.099 694.18Q816.525 693.318 815.972 692.442Q815.419 691.566 814.888 690.677Q814.358 689.787 813.849 688.885Q813.341 687.982 812.854 687.068Q812.368 686.153 811.905 685.227Q811.442 684.3 811.002 683.362Q810.562 682.425 810.145 681.476Q809.729 680.528 809.336 679.57Q808.943 678.611 808.574 677.644Q808.205 676.676 807.86 675.699Q807.515 674.722 807.194 673.738Q806.873 672.753 806.577 671.76Q806.281 670.768 806.01 669.768Q805.738 668.768 805.492 667.762Q805.245 666.756 805.024 665.745Q804.802 664.733 804.606 663.716Q804.41 662.699 804.239 661.677Q804.067 660.656 803.922 659.63Q803.776 658.605 803.656 657.576C801.03 635.286 806.759 611.793 820.925 594.197C835.907 575.586 853.807 565.36 877.537 562.807C895.483 561.464 912.552 566.109 927.095 576.795C946.262 590.879 956.665 611.963 960.016 635.189Q960.164 636.231 960.286 637.276Q960.408 638.321 960.504 639.368Q960.601 640.416 960.671 641.466Q960.742 642.515 960.787 643.567Q960.832 644.618 960.851 645.67Q960.87 646.722 960.863 647.774Q960.856 648.826 960.823 649.877Q960.791 650.929 960.732 651.979Q960.674 653.03 960.59 654.079Q960.505 655.127 960.395 656.174Q960.285 657.22 960.149 658.263Q960.014 659.307 959.853 660.346Q959.691 661.386 959.505 662.421Q959.318 663.457 959.106 664.487Q958.893 665.518 958.656 666.543Q958.419 667.568 958.156 668.587Q957.894 669.605 957.606 670.618Q957.319 671.63 957.006 672.634Q956.694 673.639 956.357 674.636Q956.02 675.633 955.659 676.621Q955.298 677.609 954.913 678.588Q954.527 679.567 954.118 680.536Q953.709 681.505 953.276 682.464Q952.843 683.423 952.386 684.371Q951.93 685.319 951.45 686.256Q950.971 687.192 950.468 688.117Q949.966 689.041 949.441 689.953Q948.916 690.865 948.369 691.764Q947.821 692.662 947.252 693.547Q946.683 694.432 946.092 695.303Q945.502 696.173 944.89 697.029Q944.278 697.885 943.645 698.726C929.764 717.139 912.003 726.601 889.412 729.661ZM888.105 586.873C877.462 590.345 868.812 595.638 863.533 606.046C858.688 615.6 858.543 626.896 862.014 636.921C865.002 645.55 870.982 652.646 879.33 656.492C886.209 659.662 893.019 659.893 900.404 659.216C910.273 656.435 918.272 651.639 923.606 642.54C928.901 633.505 930.652 621.964 927.66 611.888C924.945 602.746 918.575 595.322 910.218 590.818C903.022 586.94 896.129 586.18 888.105 586.873Z"/>
	<path fill="#FBEAC4" d="M1154.86 767.791C1155.38 740.331 1161.47 708.687 1173.1 683.733C1194.62 683.883 1226.99 685.835 1247.47 682.195C1261.97 679.619 1275.21 672.48 1288.11 665.694C1320.55 648.633 1350.74 628.075 1381.29 607.943C1398.12 596.851 1415.83 583.84 1434.23 575.598C1410.45 630.425 1397.79 720.745 1395.57 779.923C1394.51 808.185 1395.53 836.498 1396.69 864.737Q1391.77 861.439 1386.77 858.252Q1381.77 855.066 1376.71 851.992Q1371.64 848.918 1366.51 845.959Q1361.37 842.999 1356.17 840.156Q1350.98 837.312 1345.71 834.586Q1340.45 831.86 1335.13 829.252Q1329.81 826.644 1324.43 824.157Q1319.05 821.669 1313.62 819.303Q1308.19 816.937 1302.7 814.693Q1297.22 812.449 1291.68 810.329Q1286.15 808.209 1280.57 806.213Q1274.99 804.217 1269.37 802.347Q1263.74 800.478 1258.08 798.734Q1252.41 796.991 1246.71 795.375Q1241.01 793.759 1235.27 792.271Q1229.54 790.784 1223.77 789.425C1200.77 783.857 1178.63 779.466 1154.89 779.311C1155.07 775.424 1155.07 771.676 1154.86 767.791Z"/>
	<path fill="#0E7628" d="M1424.58 988.703C1416.78 976.302 1415.17 957.391 1413 943.091Q1411.63 933.884 1410.46 924.648Q1409.29 915.413 1408.32 906.154Q1407.36 896.895 1406.6 887.617Q1405.83 878.34 1405.28 869.047Q1404.72 859.755 1404.37 850.453Q1404.01 841.15 1403.86 831.842Q1403.72 822.535 1403.77 813.226Q1403.83 803.917 1404.09 794.612Q1404.35 785.306 1404.82 776.009Q1405.28 766.712 1405.95 757.427Q1406.62 748.142 1407.5 738.874Q1408.37 729.606 1409.45 720.359Q1410.53 711.113 1411.81 701.893Q1413.09 692.672 1414.58 683.482Q1416.06 674.292 1417.75 665.137Q1419.43 655.982 1421.32 646.866C1425.75 625.421 1430.14 598.829 1443.32 580.933C1451.55 589.494 1454.67 619.54 1456.3 631.653C1460.79 664.911 1461.77 698.826 1462.35 732.345C1463.6 803.993 1461.59 876.411 1444.27 946.302C1441.28 958.355 1437.99 975.914 1430 985.628C1428.42 987.555 1427.06 988.516 1424.58 988.703Z"/>
	<path fill="#FEFEFE" d="M900.404 659.216C893.019 659.893 886.209 659.662 879.33 656.492C870.982 652.646 865.002 645.55 862.014 636.921C858.543 626.896 858.688 615.6 863.533 606.046C868.812 595.638 877.462 590.345 888.105 586.873C896.129 586.18 903.022 586.94 910.218 590.818C918.575 595.322 924.945 602.746 927.66 611.888C930.652 621.964 928.901 633.505 923.606 642.54C918.272 651.639 910.273 656.435 900.404 659.216Z"/>
	<path fill="#F19C11" d="M192.678 647.487C195.286 644.738 196.723 641.858 198.541 638.623C204.518 627.989 211.192 623.106 222.433 618.838C223.634 618.708 225.338 618.408 226.521 618.824C235.861 622.11 242.634 645.804 243.904 654.713C244.979 662.245 244.487 669.883 246.092 677.373C248.091 686.702 251.742 696.056 254.745 705.128C247.335 712.62 240.678 720.808 233.09 728.167C212.373 748.257 188.675 763.984 163.81 778.409L158.539 770.864C151.116 759.834 141.171 747.694 136.824 735.148C134.136 727.39 134.922 718.982 138.59 711.661C143.86 701.146 153.743 696.847 164.274 693.454C162.291 689.391 160.991 685.709 159.861 681.334C161.793 674.307 165.014 668.97 170.701 664.305C181.136 655.748 191.68 654.78 204.647 656.094C200.791 652.86 196.989 650.084 192.678 647.487Z"/>
	<path fill="#F7C418" d="M712.718 912.062Q701.251 914.482 689.568 915.415C649.555 918.219 556.553 898.102 525.447 870.732C505.502 853.183 500.342 829.202 498.757 803.733C496.819 772.612 498.839 707.068 519.978 683.553C535.358 666.443 561.34 665.377 582.697 664.416C634.585 662.609 698.624 677.874 745.119 700.837C764.548 710.432 789.968 725.546 796.925 747.644C804.951 773.14 782.795 830.719 770.318 854.753C756.628 881.122 742.132 902.749 712.718 912.062ZM579.954 707.926C574.158 710.418 569.207 713.729 566.632 719.74C564.813 723.989 564.651 728.953 566.47 733.232C568.699 738.473 572.645 741.631 577.895 743.501Q579.707 744.141 581.538 744.724C573.589 772.273 558.346 819.514 572.859 845.431C581.458 860.787 598.481 869.782 614.953 874.268C629.472 878.223 647.167 878.819 660.62 871.097C679.146 860.465 690.075 833.341 697.489 814.265C702.771 800.646 706.642 786.578 711.681 772.895C718.458 773.392 723.88 773.612 729.333 768.818C733.336 765.299 735.558 759.873 735.755 754.599C735.878 751.3 735.252 747.388 732.642 745.092C731.189 743.813 729.818 743.898 728.035 744.047L726.949 745.423C727.239 747.529 727.658 749.28 728.304 751.305C729.432 754.842 729.226 757.556 727.376 760.829C725.924 763.398 723.384 765.048 720.539 765.694C707.902 768.563 685.388 756.698 675.192 749.74C668.23 744.989 663.191 740.059 660.343 731.944C635.949 740.612 617.326 742.173 591.532 738.557C587.417 737.981 580.477 737.588 576.843 735.484C574.229 733.971 573.073 731.839 572.438 728.987C571.819 726.211 571.932 723.627 573.478 721.159C577.4 714.897 589.852 717.73 591.946 711.904C591.083 709.983 590.452 709.351 588.407 708.64C585.717 707.703 582.754 707.765 579.954 707.926Z"/>
	<path fill="#0E7628" d="M1042.11 772.842C1043.98 745.251 1050.33 714.055 1072.21 695.025C1076.95 690.902 1082.27 687.352 1088.34 685.524C1102.15 681.359 1147.18 683.631 1164.24 683.453C1152 711.975 1146.83 745.58 1146.34 776.472Q1115.78 775.382 1085.21 774.979C1071.48 774.925 1056.7 776.111 1043.1 774.606L1042.11 772.842Z"/>
	<path fill="#0C0501" d="M581.538 744.724Q579.707 744.141 577.895 743.501C572.645 741.631 568.699 738.473 566.47 733.232C564.651 728.953 564.813 723.989 566.632 719.74C569.207 713.729 574.158 710.418 579.954 707.926C582.754 707.765 585.717 707.703 588.407 708.64C590.452 709.351 591.083 709.983 591.946 711.904C589.852 717.73 577.4 714.897 573.478 721.159C571.932 723.627 571.819 726.211 572.438 728.987C573.073 731.839 574.229 733.971 576.843 735.484C580.477 737.588 587.417 737.981 591.532 738.557C617.326 742.173 635.949 740.612 660.343 731.944C663.191 740.059 668.23 744.989 675.192 749.74C685.388 756.698 707.902 768.563 720.539 765.694C723.384 765.048 725.924 763.398 727.376 760.829C729.226 757.556 729.432 754.842 728.304 751.305C727.658 749.28 727.239 747.529 726.949 745.423L728.035 744.047C729.818 743.898 731.189 743.813 732.642 745.092C735.252 747.388 735.878 751.3 735.755 754.599C735.558 759.873 733.336 765.299 729.333 768.818C723.88 773.612 718.458 773.392 711.681 772.895C706.642 786.578 702.771 800.646 697.489 814.265C690.075 833.341 679.146 860.465 660.62 871.097C647.167 878.819 629.472 878.223 614.953 874.268C598.481 869.782 581.458 860.787 572.859 845.431C558.346 819.514 573.589 772.273 581.538 744.724ZM587.615 745.172C582.26 763.324 577.418 782.614 574.777 801.345C572.567 816.983 571.15 832.61 581.256 846.004C591.382 859.424 610.667 868.034 627.017 870.131C638.491 871.604 652.409 870.209 661.73 862.803C674.506 852.65 682.826 833.976 688.684 819.054C695.146 803.766 700.104 787.348 705.632 771.674C687.254 765.171 666.816 757.488 655.959 740.291C634.272 750.804 610.756 748.624 587.615 745.172Z"/>
	<path fill="#0E7628" d="M255.546 709.633C266.724 729.583 272.204 752.722 289.093 769.117C297.658 777.431 307.707 784.272 316.733 792.097C286.533 822.909 256.255 850.059 216.075 867.132C212.415 863.316 209.301 857.4 206.377 852.955C191.331 830.087 176.804 806.335 164.964 781.634C203.786 761.884 226.792 742.124 255.546 709.633Z"/>
	<path fill="#F7C418" d="M1468.12 847.196C1468.15 829.665 1470.65 812.039 1471.28 794.489C1472.16 769.643 1471.09 744.69 1470.74 719.843C1471.16 720.065 1471.6 720.255 1472.01 720.508C1484.48 728.298 1493.42 753.627 1495.69 767.3C1499.38 789.515 1495.33 813.93 1482.2 832.438C1478.2 837.998 1473.14 842.589 1468.12 847.196Z"/>
	<path fill="#CA381D" d="M574.777 801.345C577.418 782.614 582.26 763.324 587.615 745.172C610.756 748.624 634.272 750.804 655.959 740.291C666.816 757.488 687.254 765.171 705.632 771.674C700.104 787.348 695.146 803.766 688.684 819.054Q685.848 816.871 682.9 814.843Q679.951 812.815 676.897 810.949Q673.843 809.083 670.694 807.383Q667.544 805.684 664.308 804.157Q661.071 802.629 657.757 801.277Q654.443 799.926 651.062 798.755Q647.68 797.583 644.24 796.595Q640.8 795.608 637.312 794.806C617.559 790.466 592.365 790.044 574.777 801.345Z"/>
	<path fill="#F3D788" d="M1165.68 869.834C1158.9 840.813 1154.19 819.391 1154.04 789.234C1154.01 782.152 1153.81 774.803 1154.86 767.791C1155.07 771.676 1155.07 775.424 1154.89 779.311C1178.63 779.466 1200.77 783.857 1223.77 789.425Q1229.54 790.784 1235.27 792.271Q1241.01 793.759 1246.71 795.375Q1252.41 796.991 1258.08 798.734Q1263.74 800.478 1269.37 802.347Q1274.99 804.217 1280.57 806.213Q1286.15 808.209 1291.68 810.329Q1297.22 812.449 1302.7 814.693Q1308.19 816.937 1313.62 819.303Q1319.05 821.669 1324.43 824.157Q1329.81 826.644 1335.13 829.252Q1340.45 831.859 1345.71 834.586Q1350.98 837.312 1356.17 840.156Q1361.37 842.999 1366.51 845.959Q1371.64 848.918 1376.71 851.992Q1381.77 855.066 1386.77 858.252Q1391.77 861.439 1396.69 864.737C1398.87 905.728 1403.29 947.292 1413.59 987.087C1378.54 950.623 1293.99 885.402 1244.07 874.589C1232.93 872.176 1221.33 872.349 1209.98 871.884L1165.68 869.834Z"/>
	<path fill="#054C2C" d="M1083.54 867.176C1074.54 862.328 1066.73 856.364 1060.65 848.059C1048.02 830.792 1043.69 810.656 1042.21 789.728C1041.81 784.14 1041.26 778.406 1042.11 772.842L1043.1 774.606C1056.7 776.111 1071.48 774.925 1085.21 774.979Q1115.78 775.382 1146.34 776.472C1145.59 808.153 1147.67 838.305 1156.17 868.946C1131.86 868.01 1107.89 866.944 1083.54 867.176Z"/>
	<path fill="#FEFEFE" d="M316.733 792.097C340.364 811.377 372.455 833.588 399.773 847.196C392.959 858.053 381 868.021 371.995 877.25C357.161 892.454 342.252 907.841 328.084 923.662Q319.025 933.798 311.088 944.835C307.243 950.17 303.64 956.045 299.293 960.969C266.11 934.938 238.657 902.565 216.075 867.132C256.255 850.059 286.533 822.909 316.733 792.097Z"/>
	<path fill="#E57D4B" d="M574.777 801.345C592.365 790.044 617.559 790.466 637.312 794.806Q640.8 795.608 644.24 796.595Q647.68 797.583 651.062 798.755Q654.443 799.926 657.757 801.277Q661.071 802.629 664.308 804.157Q667.544 805.684 670.694 807.384Q673.843 809.083 676.897 810.949Q679.951 812.815 682.9 814.843Q685.848 816.871 688.684 819.054C682.826 833.976 674.506 852.65 661.73 862.803C652.409 870.209 638.491 871.604 627.017 870.131C610.667 868.034 591.382 859.424 581.256 846.004C571.15 832.61 572.567 816.983 574.777 801.345Z"/>
	<path fill="#D8D7D4" d="M399.773 847.196L408.995 852.513C380.528 879.888 354.125 908.614 327.745 937.966C321.506 944.906 308.128 964.042 301.192 966.929C301.584 965.441 302.011 964.396 301.61 962.862C301.287 961.625 300.339 961.533 299.293 960.969C303.64 956.045 307.243 950.17 311.088 944.835Q319.025 933.798 328.084 923.662C342.252 907.841 357.161 892.454 371.995 877.25C381 868.021 392.959 858.053 399.773 847.196Z"/>
	<path fill="#FEFEFE" d="M301.192 966.929C308.128 964.042 321.506 944.906 327.745 937.966C354.125 908.614 380.528 879.888 408.995 852.513C414.882 855.395 420.976 858.097 426.673 861.331C432.927 868.782 438.834 876.734 445.946 883.396C473.655 909.35 511.062 920.318 547.693 926.04Q562.082 953.973 579.555 980.088C562.173 997.81 548.37 1018.5 535.089 1039.34C527.622 1051.05 519.781 1062.68 512.897 1074.75C504.289 1089.84 496.881 1105.75 489.099 1121.27C478.538 1142.34 467.806 1163.25 457.638 1184.52C454.258 1191.59 450.849 1198.61 447.142 1205.52C444.284 1210.84 440.8 1216.07 438.617 1221.69C380.001 1194.31 318.94 1155.02 272.219 1109.94C263.814 1101.83 256.1 1092.91 248.284 1084.24C245.359 1080.79 242.798 1077.36 240.394 1073.53C245.704 1056.14 288.839 976.169 301.192 966.929ZM400.978 930.849C389.26 950.394 384.578 974.613 375.98 995.678C381.095 1013.19 390.573 1030.12 397.708 1046.96C414.771 1039.77 433.845 1037.14 451.48 1031.34C454.633 1030.05 458 1028.9 460.946 1027.19L490.851 968.203C472.304 967.527 436.958 950.231 420.116 941.283C413.895 937.978 407.669 932.973 400.978 930.849Z"/>
	<path fill="#FEFEFE" d="M968.17 919.778C1001.99 902.747 1033.48 887.152 1053.67 852.865C1061.84 863.081 1068.47 869.995 1080.95 874.697C1080.27 887.341 1078.25 899.942 1077.48 912.606C1071.62 914.442 1065.93 916.593 1060.21 918.833L1057.23 906.987C1050.86 907.346 1044.32 908.822 1038.01 909.806L1003.36 915.009C991.716 915.819 979.767 918.183 968.17 919.778Z"/>
	<path fill="#0E7628" d="M426.673 861.331C426.967 861.413 427.264 861.489 427.557 861.575C438.385 864.754 448.931 871.441 459.222 876.163C479.292 885.37 499.887 894.231 520.538 902.051C600.304 932.254 667.16 945.944 752.313 948.272C770.175 948.76 788.004 947.467 805.826 947.755C795.946 948.723 786.087 955.633 776.537 958.698C747.456 968.032 704.23 969.705 674.434 960.969C658.182 966.101 642.124 970.938 625.479 974.687C611.515 977.832 596.745 979.964 583.087 984.136C581.564 983.059 580.658 981.573 579.555 980.088Q562.082 953.973 547.693 926.04C511.062 920.318 473.655 909.35 445.946 883.396C438.834 876.734 432.927 868.782 426.673 861.331Z"/>
	<path fill="#FEFEFE" d="M1141.47 897.176C1137.26 896.549 1133.43 895.919 1129.49 897.821C1127.77 899.662 1127.54 902.061 1127.17 904.457C1124.4 922.259 1124.05 940.947 1122.64 958.938C1121.13 978.158 1118.13 998.627 1118.81 1017.82C1118.97 1022.19 1120.41 1027.76 1124.05 1030.59C1124.88 1031.24 1124.95 1031.22 1125.78 1031.58C1128.69 1032.9 1131.66 1033.55 1134.75 1034.29C1134.19 1044.88 1133.54 1055.33 1131.36 1065.74C1116.82 1065.87 1099.96 1065.36 1085.74 1062.15C1082.91 1046.49 1080.9 1011.85 1083.13 996.525C1091.93 988.625 1099.25 978.372 1103.02 967.117C1107.18 954.671 1107.32 937.555 1096.14 928.539C1092.6 925.687 1086.03 923.634 1084.08 919.692Q1087.27 897.275 1089.49 874.74Q1117.3 875.313 1145.08 876.89C1143.21 883.555 1142.91 890.428 1141.47 897.176Z"/>
	<path fill="#0E7628" d="M1125.78 1031.58C1124.95 1031.22 1124.88 1031.24 1124.05 1030.59C1120.41 1027.76 1118.97 1022.19 1118.81 1017.82C1118.13 998.627 1121.13 978.158 1122.64 958.938C1124.05 940.947 1124.4 922.259 1127.17 904.457C1127.54 902.061 1127.77 899.662 1129.49 897.821C1133.43 895.919 1137.26 896.549 1141.47 897.176C1141.63 897.352 1141.76 897.549 1141.94 897.703C1151.11 905.579 1183.55 897.977 1186.86 918.376C1187.81 924.246 1187.09 935.532 1183.4 940.33C1181.47 942.833 1178.7 944.399 1176.07 946.059C1165.6 945.924 1155.13 945.402 1144.81 947.434L1145.95 947.795C1156.96 951.191 1177.39 950.171 1183.56 961.091C1186.82 966.858 1186.77 974.534 1184.96 980.755C1183.97 984.172 1182.25 987.129 1179 988.791C1173.13 991.791 1159.81 988.818 1153.34 988.613C1149.24 988.483 1145.09 988.976 1141.04 989.537C1151.56 991.863 1163.58 993.336 1173.16 998.316C1176.45 1006.57 1177.45 1015.82 1173.57 1024.13C1171.78 1027.96 1168.77 1030.63 1164.73 1031.87C1152.43 1035.64 1138.04 1028.16 1125.78 1031.58Z"/>
	<path fill="#0E7628" d="M987.044 925.394C1008.51 922.368 1030.12 919.783 1051.45 915.977Q1057.67 959.058 1062.72 1002.29C1064.98 1022.71 1066.42 1043.43 1070.12 1063.64C1041.5 1067.45 1013.23 1072.48 984.358 1074.31C989.905 1031.25 994.972 967.975 987.044 925.394Z"/>
	<path fill="#F7C418" d="M1060.57 928.939C1067.56 925.155 1074.64 922.884 1082.38 921.144C1083.45 920.902 1083.44 920.545 1084.08 919.692C1086.03 923.634 1092.6 925.687 1096.14 928.539C1107.32 937.555 1107.18 954.671 1103.02 967.117C1099.25 978.372 1091.93 988.625 1083.13 996.525C1081.81 997.272 1080.49 997.976 1079.09 998.581C1076.1 999.875 1073.45 1000.96 1070.31 999.699C1067.04 991.814 1061.79 940.968 1060.57 928.939Z"/>
	<path fill="#FEFEFE" d="M827.949 946.54C850.269 944.737 872.408 942.428 894.503 938.741C906.042 936.815 917.424 933.899 928.975 932.127C948.18 929.183 967.763 928.274 987.044 925.394C994.972 967.975 989.905 1031.25 984.358 1074.31C936.394 1079.54 874.337 1075.71 827.248 1064.47C831.643 1021.07 833.267 989.928 827.949 946.54Z"/>
	<path fill="#F7C418" d="M375.98 995.678C384.578 974.613 389.26 950.394 400.978 930.849C407.669 932.973 413.895 937.978 420.116 941.283C436.958 950.231 472.304 967.527 490.851 968.203L460.946 1027.19C458 1028.9 454.633 1030.05 451.48 1031.34C433.845 1037.14 414.771 1039.77 397.708 1046.96C390.573 1030.12 381.095 1013.19 375.98 995.678ZM403.738 941.653C400.451 953.924 396.136 965.832 392.343 977.942C410.386 989.155 429.599 996.877 449.404 1004.36C452.852 1005.66 458.112 1008.49 461.77 1008.45C462.449 1007.46 463.051 1006.55 463.614 1005.49C468.748 995.236 473.654 984.676 479.582 974.858C452.245 966.56 428.272 956.313 403.738 941.653ZM387.409 990.767C384.518 999.139 397.435 1026.16 401.552 1034.84C401.847 1035.47 402.161 1036.08 402.481 1036.69L441.672 1024.25L454.557 1019.63C437.67 1013.07 421.482 1004.83 404.821 997.72C399.261 995.349 393.242 992.269 387.409 990.767Z"/>
	<path fill="#054C2C" d="M392.343 977.942C396.136 965.832 400.451 953.924 403.738 941.653C428.272 956.313 452.245 966.56 479.582 974.858C473.654 984.676 468.748 995.236 463.614 1005.49C463.051 1006.55 462.449 1007.46 461.77 1008.45C458.112 1008.49 452.852 1005.66 449.404 1004.36C429.599 996.877 410.386 989.155 392.343 977.942Z"/>
	<path fill="#D8D7D4" d="M815.096 947.329C819.329 946.846 823.691 946.775 827.949 946.54C833.267 989.928 831.643 1021.07 827.248 1064.47L819.473 1062.26C824.166 1030.43 825.903 997.852 822.917 965.778C822.398 960.195 822.303 953.075 819.595 948.094L815.096 947.329Z"/>
	<path fill="#FEFEFE" d="M805.826 947.755C808.894 947.64 812.05 947.679 815.096 947.329L819.595 948.094C822.303 953.075 822.398 960.195 822.917 965.778C825.903 997.852 824.166 1030.43 819.473 1062.26C815.01 1084 810.136 1105.83 803.644 1127.06C788.545 1176.43 759.673 1241.12 731.544 1284.3Q719.604 1285.45 707.623 1286.05C609.634 1285.42 541.91 1266.09 452.359 1227.92C459.527 1220.02 467.003 1189.47 471.217 1177.78C477.166 1161.26 485.382 1145.68 493.013 1129.9C501.759 1111.81 510.294 1093.45 520.176 1075.95C538.604 1043.31 560.262 1013.78 583.087 984.136C596.745 979.964 611.515 977.832 625.479 974.687C642.124 970.938 658.182 966.101 674.434 960.969C704.23 969.705 747.456 968.032 776.537 958.698C786.087 955.633 795.946 948.723 805.826 947.755Z"/>
	<path fill="#D8D7D4" d="M579.555 980.088C580.658 981.573 581.564 983.059 583.087 984.136C560.262 1013.78 538.604 1043.31 520.176 1075.95C510.294 1093.45 501.759 1111.81 493.013 1129.9C485.382 1145.68 477.166 1161.26 471.217 1177.78C467.003 1189.47 459.527 1220.02 452.359 1227.92C447.68 1226.02 443.152 1223.91 438.617 1221.69C440.8 1216.07 444.284 1210.84 447.142 1205.52C450.849 1198.61 454.258 1191.59 457.638 1184.52C467.806 1163.25 478.538 1142.34 489.099 1121.27C496.881 1105.75 504.289 1089.84 512.897 1074.75C519.781 1062.68 527.622 1051.05 535.089 1039.34C548.37 1018.5 562.173 997.81 579.555 980.088Z"/>
	<path fill="#054C2C" d="M402.481 1036.69C402.161 1036.08 401.847 1035.47 401.552 1034.84C397.435 1026.16 384.518 999.139 387.409 990.767C393.242 992.269 399.261 995.349 404.821 997.72C421.482 1004.83 437.67 1013.07 454.557 1019.63L441.672 1024.25L402.481 1036.69Z"/>
	<path fill="#022F1D" d="M248.284 1084.24C256.1 1092.91 263.814 1101.83 272.219 1109.94C318.94 1155.02 380.001 1194.31 438.617 1221.69C443.152 1223.91 447.68 1226.02 452.359 1227.92C541.91 1266.09 609.634 1285.42 707.623 1286.05L702.199 1286.91C700.179 1295.39 698.76 1304.02 696.805 1312.52C690.256 1310.29 671.24 1311.47 662.915 1311.11C654.896 1310.76 646.859 1309.98 638.87 1309.21C587.407 1304.24 519.212 1290.82 471.621 1271.04C443.091 1259.18 414.711 1245.33 388.109 1229.57C379.958 1224.74 372.262 1219.19 364.322 1214.03C355.215 1208.12 345.77 1202.49 337.017 1196.06C311.113 1177.05 260.213 1135.46 243.29 1109.43C239.993 1104.36 237.825 1098.09 235.511 1092.51C239.537 1087.88 242.408 1086.02 248.284 1084.24Z"/>
	<path fill="#054C2C" d="M196.073 1116.93C209.181 1108.69 223.236 1102.04 235.511 1092.51C237.825 1098.09 239.993 1104.36 243.29 1109.43C260.213 1135.46 311.113 1177.05 337.017 1196.06C345.77 1202.49 355.215 1208.12 364.322 1214.03C372.262 1219.19 379.958 1224.74 388.109 1229.57C414.711 1245.33 443.091 1259.18 471.621 1271.04C519.212 1290.82 587.407 1304.24 638.87 1309.21C646.859 1309.98 654.896 1310.76 662.915 1311.11C671.24 1311.47 690.256 1310.29 696.805 1312.52Q687.124 1360.67 674.09 1408.02C614.601 1418.23 541.186 1405.12 487.298 1378.78C484.064 1377.2 479.748 1375.54 478.533 1372.04C480.287 1360.57 482.126 1349.09 484.717 1337.78C489.688 1339.56 500.292 1342.68 505.455 1343.97C507.33 1344.43 508.202 1343.72 509.627 1342.65C510.437 1340.42 510.415 1340.06 509.96 1337.72C508.804 1336.11 507.831 1335.31 506.003 1334.62C498.982 1331.98 491.285 1330.92 484.127 1328.57C468.257 1323.35 452.132 1316.9 436.638 1310.66C417.896 1303.11 400.934 1293.58 383.103 1284.27C377.2 1281.19 371.025 1278.83 365.334 1275.33C365.894 1273.47 366.599 1271.64 366.391 1269.68C366.258 1268.42 365.707 1268.38 364.782 1267.68C362.638 1267.43 361.21 1268.11 359.307 1268.99C352.781 1272 346.544 1276.22 340.235 1279.71Q318.865 1291.48 297.361 1303.01C290.979 1306.63 284.287 1309.83 277.759 1313.19Q269.977 1308.8 262.6 1303.76C252.117 1296.55 243.628 1287.11 235.647 1277.3C202.245 1236.24 182.692 1183.7 173.144 1132.05C180.274 1126.32 188.198 1121.55 196.073 1116.93Z"/>
	<path fill="#F19C11" d="M113.605 1178.28C123.115 1165.35 151.397 1144.67 165.38 1135.84C167.806 1138.13 171.19 1161.67 172.559 1166.74C185.231 1213.69 207.646 1264.15 243.2 1298.38C250.244 1305.16 258.058 1310.68 266.059 1316.24C249.9 1324.53 234.342 1338.36 215.397 1337.29C191.346 1334.17 170.475 1310.4 155.878 1292.48C130.302 1261.08 109.317 1219.75 113.605 1178.28Z"/>
	<path fill="#039F58" d="M139.336 1421.7C148.157 1420.86 157.207 1421.29 166.074 1420.89Q179.061 1420.42 191.94 1418.69Q204.82 1416.96 217.473 1414C290.888 1397.25 340.565 1354.18 379.764 1291.83C390.315 1298.73 402.33 1304.03 413.8 1309.23C403.213 1332.5 380.646 1358.25 361.971 1375.74C324.203 1411.12 273.688 1431.98 222.354 1436.69C205.051 1438.27 187.505 1437.82 170.16 1437.26C160.452 1436.62 143.166 1436.91 134.64 1432.93L134.23 1431.45C135.419 1427.85 137.344 1424.9 139.336 1421.7Z"/>
	<path fill="#022F1D" d="M473.428 1403.19C475.45 1392.88 476.188 1382.31 478.533 1372.04C479.748 1375.54 484.064 1377.2 487.298 1378.78C541.186 1405.12 614.601 1418.23 674.09 1408.02C671.599 1418.95 668.507 1429.75 665.525 1440.55C600.955 1445.16 530.633 1434.8 473.428 1403.19Z"/>
	<path fill="#F7C418" d="M33.6577 1381.79C43.8928 1379.23 54.0892 1377.84 64.5752 1376.89C74.8114 1375.5 87.5449 1377.33 97.3025 1380.6C114.009 1386.2 126.665 1398.53 134.411 1414.13C132.25 1417.26 130.174 1420.53 128.528 1423.97C126.329 1428.56 124.329 1434.01 126.367 1439.03C127.622 1442.12 130.257 1442.91 133.119 1444.15Q131.786 1446.11 130.309 1447.97Q128.833 1449.83 127.22 1451.57Q125.608 1453.31 123.869 1454.92Q122.13 1456.53 120.274 1458.01C107.121 1468.53 91.4831 1472.93 74.8273 1470.98C52.7192 1467.54 34.1383 1456.12 16.7217 1442.63C27.6597 1438.22 41.5106 1433.53 49.506 1424.51C52.7974 1420.8 54.6526 1416.22 54.315 1411.23C53.522 1399.49 41.7156 1389.15 33.6577 1381.79Z"/>
	<path fill="#F19C11" d="M473.428 1403.19C530.633 1434.8 600.955 1445.16 665.525 1440.55C660.663 1455.63 651.63 1492.54 640.181 1501.32C623.739 1513.93 591.703 1512 572.49 1509.46C540.239 1505.2 494.132 1493.69 473.9 1466.81C470.907 1462.84 468.01 1457.89 467.302 1452.93C465.958 1443.51 471.84 1414.68 473.428 1403.19Z"/>
</svg>
