<?xml version="1.0" encoding="utf-8"?>
<!-- Generator: Adobe Adobe Illustrator 29.2.0, SVG Export Plug-In . SVG Version: 6.00 Build 0)  -->
<svg version="1.1" id="Layer_1" xmlns="http://www.w3.org/2000/svg" xmlns:xlink="http://www.w3.org/1999/xlink" x="0px" y="0px"
	 viewBox="0 0 414.93 605.12" style="enable-background:new 0 0 414.93 605.12;" xml:space="preserve">
<style type="text/css">
	.st0{fill:#016600;}
	.st1{fill:none;}
	.st2{fill:#FDFEFD;}
	.st3{fill:#DBC900;}
	.st4{fill:#DDCA00;}
	.st5{fill:#E2CB00;}
	.st6{fill:#CFC100;}
	.st7{fill:#DECB00;}
	.st8{fill:#E7CF00;}
	.st9{fill:#DFCF00;}
	.st10{fill:#CFC300;}
	.st11{fill:#FDD600;}
	.st12{fill:#066800;}
</style>
<g>
	<path class="st0" d="M399.54,374.33c-7.77,5.02-16.01,8.7-24.93,10.34c-7.56,1.39-15.13,1.71-22.85,0.52
		c-8.12-1.26-15.66-4.05-23.07-7.46c-2.84-1.31-5.44-3.18-8.88-5.23c0.26,2.69,0.38,4.68,0.64,6.64c1.19,8.72,1.27,17.4,0.07,26.16
		c-0.95,6.98-2.12,13.83-4.5,20.43c-2.96,8.18-7.15,15.57-12.47,22.32c-5.74,7.28-13.01,12.75-19.55,19.09
		c-5.26,5.1-10.17,10.65-14.97,16.25c-4.5,5.25-4.56,11.92-3.64,18.31c1.12,7.74,1.11,15.41,0.23,23.09
		c-1.29,11.29-3.97,22.28-7.49,33.03c-1.99,6.08-5.55,11.17-9.2,16.25c-4.99,6.93-11.4,11.38-19.4,13.52
		c-5.01,1.34-9.41,3.91-13.34,7.62c-3.04,2.87-6.82,4.5-11.12,4.37c-3.2-0.1-6.4-0.04-9.6-0.01c-4.24,0.03-8.15-1.37-11.12-4.35
		c-3.79-3.81-8.15-6.33-13.09-7.54c-10.02-2.45-16.48-9.51-22.45-17.67c-6.33-8.64-8.27-18.94-10.98-29
		c-2.96-10.95-3.94-22.15-3.46-33.49c0.17-3.97,0.59-7.94,0.98-11.9c0.42-4.24-0.79-8.09-3.34-11.14
		c-4.85-5.79-9.81-11.52-15.18-16.76c-9.06-8.83-19.06-16.65-25.69-27.94c-5.44-9.27-8.98-19.29-10.48-30.04
		c-0.73-5.22-1.39-10.49-1.43-15.75c-0.04-5.43,0.72-10.87,1.13-16.31c0.11-1.45,0.21-2.91,0.37-5.03
		c-26.19,16.46-52.36,18.11-79.04,2.37c-0.18-0.55-0.18-1.11,0-1.87c3.79-4.57,7.17-9.18,11.07-13.24
		c5.44-5.67,11.16-11.05,16.95-16.33c11.78-10.75,24.98-19.21,39.09-26.12c3.34-1.64,6.87-2.85,10.5-4.2
		c0.88,0.21,1.58,0.35,2.65,0.56c-2.16,1.73-3.96,3.25-5.83,4.68c-14.76,11.28-28.15,24.07-38.91,39.68c-1.5,2.17-2.5,4.72-3.68,7
		c0.64,0.5,0.75,0.66,0.9,0.7c17.01,4.16,32.83,0.95,47.41-8.88c1.89-1.27,3.26-3.87,4.19-6.16c2.29-5.65,3.85-11.64,6.33-17.19
		c4.13-9.27,2.66-20.14-4.28-27.71c0.02,0,0.02,0.05,0.1-0.13c-0.15-0.43-0.39-0.68-0.59-0.93c0.03,0,0.02,0.06,0.07-0.13
		c-0.2-0.44-0.44-0.68-0.82-1.02c-0.49-1.04-0.85-1.99-1.21-3.13c-0.18-0.27-0.37-0.33-0.54-0.4c0.02,0,0,0.03,0.15-0.14
		c-0.13-0.42-0.39-0.67-0.64-0.92c0.02,0,0.01,0.04,0.15-0.13c-0.13-0.42-0.39-0.67-0.64-0.92c0.02,0,0.01,0.04,0.14-0.13
		c-0.13-0.42-0.39-0.67-0.64-0.92c0.02,0,0.01,0.04,0.14-0.13c-0.13-0.42-0.39-0.67-0.63-0.92c0.02,0,0.01,0.04,0.13-0.13
		c-0.13-0.42-0.39-0.67-0.63-0.92c0.02,0,0.01,0.04,0.12-0.13c-0.14-0.42-0.39-0.67-0.62-0.92c0.02,0,0.01,0.05,0.11-0.13
		c-0.14-0.43-0.39-0.67-0.61-0.92c0.02,0,0.01,0.05,0.1-0.13c-0.15-0.43-0.38-0.68-0.6-0.92c0.02,0,0.01,0.05,0.09-0.13
		c-0.15-0.43-0.38-0.67-0.59-0.91c0.02,0,0.01,0.05,0.1-0.13c-0.15-0.43-0.38-0.67-0.59-0.91c0.02,0,0.01,0.05,0.1-0.14
		c-0.15-0.43-0.38-0.67-0.6-0.91c0.02,0,0.01,0.04,0.11-0.14c-0.14-0.42-0.39-0.67-0.61-0.91c0.02,0,0.01,0.04,0.14-0.13
		c-0.46-1.29-1.05-2.42-1.62-3.55c0.02,0,0.02,0.05,0.08-0.13c-0.16-0.43-0.38-0.67-0.58-0.91c0.02,0,0.01,0.05,0.11-0.14
		c-0.15-0.43-0.38-0.67-0.61-0.91c0.02,0,0,0.03,0.16-0.07c-0.07-0.65-0.29-1.2-0.59-1.94c-2.05-4.99-4.02-9.79-5.95-14.79
		c-0.17-0.46-0.38-0.73-0.58-1c0.02,0,0.01,0.04,0.1-0.15c-0.14-0.52-0.36-0.85-0.57-1.16c0.01,0.01,0,0.04,0.07-0.17
		c-0.32-1.04-0.72-1.88-1.09-2.71c0.02,0.01,0.01,0.05,0.11-0.13c-0.14-0.6-0.38-1.03-0.6-1.45c0.02,0.01,0.01,0.05,0.08-0.15
		c-0.14-0.52-0.36-0.84-0.55-1.16c0.01,0.01,0,0.04,0.07-0.14c-0.11-0.77-0.29-1.37-0.55-2.15c-0.9-2.6-1.71-5.01-2.51-7.61
		c-0.17-0.58-0.36-0.97-0.52-1.36c0.02,0.01,0.01,0.06,0.08-0.13c-0.16-0.61-0.38-1.03-0.58-1.44c0.02,0.01,0.01,0.06,0.1-0.15
		c-1.49-6.36-3.07-12.52-4.64-18.87c-0.31-1.12-0.63-2.05-0.93-2.97c0.02,0.01,0.01,0.06,0.08-0.16c-0.65-3.92-1.37-7.63-2.1-11.54
		c-0.33-1.97-0.66-3.73-0.95-5.49c-0.52-3.17-1.02-6.34-1.49-9.74c-0.32-4.26-0.68-8.27-1.03-12.5c-0.03-0.49-0.07-0.77-0.16-1.26
		c-0.04-1.05-0.02-1.89,0.04-2.97c0.04-11.76,0.03-23.28,0.06-35.05c0.1-1.88,0.09-3.52,0.24-5.15c0.39-4.13,0.86-8.26,1.31-12.59
		c0.01-0.6,0.01-1,0.12-1.56c0.3-1.27,0.5-2.37,0.68-3.48c0.91-5.6,1.81-11.21,2.72-16.79c0,0.02-0.04,0.03,0.12,0
		c0.21-0.37,0.25-0.7,0.37-1.22c1.08-4.76,2.1-9.34,3.23-14.07c0.33-1.35,0.38-2.59,0.77-3.71c3.87-11.13,7.51-22.37,11.77-33.34
		C79.42,36.28,87.02,21.9,96.29,8.53c0.6-0.86,0.83-2,1.24-3.01c0.22,0,0.44,0,0.83,0c-0.49,9.24-1.18,18.47-1.78,27.71
		c-0.27,4.16-0.46,8.32-0.52,12.49c-0.09,5.97-0.26,11.95,0.03,17.91c0.43,8.81,1.2,17.61,1.9,26.41c0.43,5.34,0.77,10.72,1.59,16
		c0.92,5.86,2.3,11.65,3.56,17.45c3.54,16.29,8.67,32.04,15.67,47.03c5.79,12.39,12.34,24.37,20.86,34.95
		c5.54,6.89,11.38,13.56,17.46,19.92c7.81,8.17,16.81,14.8,26.49,20.32c5.01,2.86,7.81,7.65,10.34,12.59
		c1.99,3.87,3.29,8.13,4.92,12.21c0.33,0.83,0.78,1.62,1.85,2.46c0.92-2.51,1.84-5.03,2.77-7.54c2.31-6.29,5.19-12.32,9.88-16.94
		c2.71-2.67,6.34-4.3,9.56-6.39c7.17-4.65,13.72-10.12,20.03-16.01c8-7.48,14.86-15.95,21.18-24.98
		c7.46-10.66,13.74-22.06,19.05-34.05c4.85-10.96,8.79-22.27,11.8-33.93c1.29-5.01,2.65-10.03,3.59-15.12
		c1.34-7.29,2.34-14.65,3.45-21.98c1.8-11.87,2.08-23.84,2.01-35.83c-0.06-9.11,0.23-18.23-0.1-27.33
		c-0.27-7.34-1.26-14.64-1.85-21.97c-0.11-1.36,0.22-2.75,0.35-4.13c0.27-0.05,0.54-0.09,0.81-0.14c2.73,4.3,5.68,8.45,8.13,12.92
		c4.28,7.82,8.54,15.69,12.3,23.8c8.58,18.54,15.4,37.79,19.2,58.08c2.06,11.01,4.2,22.06,5.25,33.2c1.06,11.3,1,22.74,1.12,34.12
		c0.14,12.5-1.48,24.85-3.29,37.2c-2.5,17.11-6.49,33.8-12.17,50c-3.71,10.57-7.93,20.96-12.25,31.28
		c-3.06,7.3-6.67,14.35-10.24,21.71c-1.45,2.21-2.85,4.14-3.9,6.27c-2.67,5.43-2.6,10.92-0.27,16.56c2.6,6.28,4.99,12.65,7.27,19.06
		c1.09,3.07,2.67,5.41,5.4,7.13c8.96,5.63,18.6,8.97,29.01,9.56c6,0.34,12.06,0.43,18.08-2.44c-1.52-2.69-2.79-5.42-4.47-7.84
		c-9.51-13.7-21.19-25.14-33.92-35.43c-4.13-3.34-8.5-6.35-12.73-9.55c-0.24-0.18-0.23-0.74-0.34-1.12
		c4.04,1.44,8.19,2.62,12.11,4.36c13.11,5.8,25.26,13.37,36.63,22.36c9.58,7.58,18.42,16.01,26.63,25.18
		c2.97,3.32,5.61,6.96,8.57,10.45C399.54,373.69,399.54,373.92,399.54,374.33 M181.55,577.94c9.8,6.5,20.21,7,30.94,3.26
		c6.82-2.38,12.17-7.22,17.42-12.2c4.61-4.37,9.37-8.55,14.03-12.86c1.67-1.54,3.44-3.04,4.82-4.85c4.4-5.79,5.94-12.71,6.45-19.92
		c0.84-12.06-0.58-23.96-2.09-35.89c-0.64-5.03-1.17-10.35-0.33-15.26c1.84-10.78,8.59-18.72,16.08-25.68
		c7.69-7.14,15.74-13.88,23.9-20.41c14.86-11.89,19.25-28.09,16.98-46.55c-2-16.28-9-31.05-14.57-46.75
		c-0.66,1.56-1.38,2.67-1.6,3.89c-0.75,4.17-1.69,8.35-1.9,12.56c-0.61,12.13,0.13,24.12,3.48,35.9c1.8,6.34,1.56,12.87-0.82,19.19
		c-3.14,8.35-8.19,15.39-14.24,21.48c-9.34,9.39-19.09,18.33-28.7,27.42c-12.25,11.59-23.71,23.86-31.09,39.67
		c-0.48,1.02-1.17,1.92-1.76,2.88c-0.23-0.11-0.46-0.21-0.7-0.32c0.32-1.84,0.51-3.71,0.98-5.51c5.76-21.64,17.95-38.66,34.04-53.01
		c6.43-5.74,12.43-12.01,18.54-18.13c1.56-1.56,2.75-3.5,2.09-6.47c-1.91,0.3-3.98,0.23-5.74,0.97c-7.3,3.04-14.86,4.11-22.61,3.41
		c-2.38-0.22-4.93-0.92-6.99-2.15c-5.78-3.46-7.62-9.42-7.74-15.95c-0.16-8.57,2.07-16.68,5.21-24.49
		c7.99-19.87,20.14-36.83,34.38-52.03c12.02-12.84,21.37-27.48,29.19-43.27c10.18-20.57,17.63-42.25,22.47-64.88
		c4.09-19.13,6.83-38.44,6.72-58.1c-0.05-9.93-0.1-19.87-0.56-29.78c-0.36-7.72-0.96-15.48-2.16-23.09
		c-1.96-12.32-4.47-24.54-6.83-36.78c-0.55-2.84-1.45-5.6-2.19-8.4c-0.55,3.23-0.72,6.29-0.52,9.33
		c0.95,15.08,0.73,30.09-1.64,45.05c-2.94,18.54-8.24,36.29-15.96,53.19c-11.83,25.91-28.03,48.6-46.99,69.19
		c-6.72,7.29-14.29,13.4-22.22,19.19c-9.43,6.9-16.16,16.15-18.57,28.3c-0.77,3.9-0.89,7.98-1.99,11.76
		c-1.25,4.28-3.36,8.28-4.92,12.48c-0.67,1.83-1.81,2.47-3.49,2.7c-1.84,0.26-2.8-0.84-3.47-2.32c-1.66-3.68-3.67-7.27-4.77-11.14
		c-1.34-4.71-1.71-9.71-2.82-14.5c-2.74-11.8-9.47-20.69-18.7-27.68c-4.22-3.2-8.74-6.08-12.54-9.77
		c-6.45-6.26-12.69-12.8-18.58-19.64c-17.75-20.59-32.22-43.42-42.25-69.28c-6.76-17.42-10.92-35.51-13.02-54.1
		c-1.4-12.39-1.47-24.88,0.22-37.31c0.13-0.96,0.02-1.95,0.02-2.93c-0.27-0.04-0.55-0.09-0.82-0.13c-0.67,2.1-1.56,4.16-1.98,6.31
		c-2.1,10.7-4.01,21.44-6.1,32.15c-2.58,13.18-3.24,26.56-3.83,39.93c-0.89,20.18,1.11,40.2,4.06,60.09
		c3.1,20.92,8.89,41.07,16.68,60.6c7.06,17.72,15.3,34.75,26.72,49.81c5.56,7.34,12.13,13.83,17.99,20.93
		c10.01,12.12,19.12,24.89,25.75,39.49c4.49,9.89,7.17,20.07,6.84,31.15c-0.3,10.18-7.04,16.79-15.93,16.8
		c-6.96,0-13.63-0.69-20.11-3.55c-2.16-0.96-4.65-1.11-7.05-1.65c-0.4,3.76,1.18,5.9,3.08,7.76c7.53,7.35,15.06,14.69,22.7,21.92
		c12.34,11.68,21.8,25.43,27.39,41.95c1.16,3.43,1.8,7.05,2.68,10.58c-0.31,0.13-0.62,0.26-0.94,0.4c-0.99-1.63-2.07-3.22-2.96-4.91
		c-4.41-8.35-9.49-16.26-16.07-22.8c-11.07-11.01-22.58-21.54-33.87-32.3c-7.51-7.15-14.79-14.51-19.93-23.86
		c-4.2-7.65-6.35-15.83-4.12-24.5c3.01-11.71,4.54-23.53,3.78-35.61c-0.36-5.75-1.28-11.47-1.94-17.2c-0.35-0.04-0.7-0.08-1.05-0.12
		c-0.96,1.97-2.06,3.89-2.84,5.94c-2.2,5.8-4.36,11.62-6.36,17.5c-4.34,12.77-7.59,25.72-5.65,39.52
		c1.73,12.36,7.48,22.22,16.9,29.6c11.06,8.66,21.81,17.66,31.09,28.42c6.61,7.66,11,16.33,9.72,27.17
		c-0.72,6.12-1.44,12.24-2.27,18.35c-1.28,9.45-1.79,18.93-0.13,28.35c1.37,7.76,4.21,14.72,10.58,19.7
		c4.17,3.26,7.94,7.08,11.94,10.58C172.64,570.38,176.96,574.03,181.55,577.94 M150.85,405.69c2.45,0.13,4.9,0.27,7.39,0.4
		c-0.92-9.94-24.42-34.27-33.63-35.05c-0.19,1.27-0.44,2.55-0.55,3.84c-0.83,9.67,1.74,17.86,9.5,23.74
		C138.62,402.45,144.41,404.3,150.85,405.69 M248.53,393.86c-2.69,3.62-5.09,7.41-6.51,12.15c9.48,0.19,17.98-2.01,25.41-7.81
		c7.75-6.05,10.11-14.48,8.89-24.22c-0.38-3.09-1.3-3.44-3.94-1.77C263.35,377.93,255.5,385.08,248.53,393.86z"/>
	<path class="st1" d="M315.36,310.94c0.18,0.56,0.16,1.11,0.41,1.3c4.23,3.2,8.6,6.21,12.73,9.55c12.72,10.3,24.4,21.74,33.92,35.43
		c1.68,2.42,2.95,5.15,4.47,7.84c-6.02,2.88-12.07,2.78-18.08,2.44c-10.41-0.58-20.04-3.93-29.01-9.56
		c-2.73-1.72-4.31-4.06-5.4-7.13c-2.28-6.41-4.67-12.79-7.27-19.06c-2.33-5.64-2.4-11.13,0.27-16.56c1.05-2.13,2.45-4.05,3.86-6.08
		C312.72,309.67,314,310.22,315.36,310.94z"/>
	<path class="st1" d="M79.27,313.26c2.22-1.26,4.56-2.66,7.05-3.58c1.78-0.66,2.48-1.46,1.72-3.54c6.95,7.37,8.42,18.25,4.29,27.52
		c-2.47,5.55-4.03,11.54-6.33,17.19c-0.93,2.29-2.3,4.88-4.19,6.16c-14.58,9.83-30.41,13.04-47.41,8.88c-0.15-0.04-0.26-0.2-0.9-0.7
		c1.18-2.28,2.18-4.83,3.68-7c10.76-15.61,24.15-28.4,38.91-39.68c1.87-1.43,3.67-2.94,5.83-4.68
		C80.85,313.6,80.15,313.46,79.27,313.26z"/>
	<path class="st2" d="M150.64,405.6c-6.23-1.29-12.02-3.15-17.08-6.98c-7.76-5.88-10.32-14.06-9.5-23.74
		c0.11-1.29,0.36-2.56,0.55-3.84c9.21,0.78,32.7,25.11,33.63,35.05C155.75,405.95,153.3,405.82,150.64,405.6z"/>
	<path class="st2" d="M248.64,393.72c6.86-8.65,14.71-15.79,23.73-21.5c2.64-1.67,3.55-1.32,3.94,1.77
		c1.21,9.74-1.14,18.16-8.89,24.22c-7.43,5.8-15.94,8-25.41,7.81C243.43,401.28,245.83,397.49,248.64,393.72z"/>
	<path class="st3" d="M51.71,178.78c-0.16-0.43-0.46-0.87-0.46-1.3c0-11.2,0.03-22.39,0.35-33.69c0.3-0.1,0.52-0.09,0.52-0.09
		c0.01,11.52,0.02,23.05-0.11,34.81C51.88,178.75,51.71,178.78,51.71,178.78z"/>
	<path class="st4" d="M53.83,124.17c0.93-6.6,1.98-13.36,3.21-20.21c-0.72,5.52-1.62,11.13-2.53,16.73
		C54.33,121.8,54.13,122.9,53.83,124.17z"/>
	<path class="st5" d="M63.28,244.02c-1.58-5.22-3.08-10.64-4.57-16.07c-0.2-0.72-0.33-1.46-0.36-2.4c0.13-0.21,0.29-0.21,0.29-0.21
		C60.21,231.5,61.78,237.65,63.28,244.02z"/>
	<path class="st6" d="M52.16,143.46c-0.04,0.24-0.26,0.23-0.37,0.21c0.45-5.86,1-11.7,1.73-17.65c-0.26,4.03-0.73,8.15-1.12,12.29
		C52.24,139.94,52.26,141.59,52.16,143.46z"/>
	<path class="st7" d="M57.3,102.87c1.04-4.69,2.07-9.37,3.31-14.08c-0.81,4.55-1.83,9.13-2.99,13.89
		C57.47,102.87,57.3,102.87,57.3,102.87z"/>
	<path class="st8" d="M53.25,195.24c-0.49-3.87-0.96-7.99-1.23-12.2C52.57,186.97,52.93,190.99,53.25,195.24z"/>
	<path class="st7" d="M57.79,222.02c-0.86-3.58-1.66-7.37-2.27-11.25C56.41,214.39,57.13,218.1,57.79,222.02z"/>
	<path class="st9" d="M79.23,287.49c-0.62-0.94-1.12-2.04-1.63-3.35C78.18,285.07,78.77,286.2,79.23,287.49z"/>
	<path class="st7" d="M58.64,225.15c-0.01,0.19-0.17,0.19-0.25,0.19c-0.27-0.92-0.45-1.83-0.67-2.96
		C58.01,223.1,58.33,224.03,58.64,225.15z"/>
	<path class="st10" d="M69.24,262.58c-0.41-0.63-0.75-1.47-1.1-2.51C68.53,260.7,68.92,261.54,69.24,262.58z"/>
	<path class="st6" d="M51.75,178.97c-0.05-0.18,0.12-0.22,0.21-0.22c0.07,0.84,0.05,1.69,0.09,2.74
		C52.01,180.84,51.91,180,51.75,178.97z"/>
	<path class="st10" d="M67.26,256.85c-0.22-0.41-0.36-0.99-0.49-1.77C66.97,255.49,67.15,256.08,67.26,256.85z"/>
	<path class="st9" d="M76.76,281.79c-0.29-0.4-0.43-0.9-0.53-1.58C76.47,280.59,76.7,281.14,76.76,281.79z"/>
	<path class="st5" d="M64.2,247.09c-0.18-0.21-0.33-0.6-0.52-1.17C63.84,246.12,64.03,246.51,64.2,247.09z"/>
	<path class="st5" d="M63.76,245.6c-0.23-0.23-0.4-0.64-0.58-1.25C63.38,244.58,63.61,245,63.76,245.6z"/>
	<path class="st10" d="M68.26,259.75c-0.27-0.24-0.43-0.66-0.61-1.26C67.88,258.72,68.12,259.15,68.26,259.75z"/>
	<path class="st11" d="M87.63,304.74c-0.22-0.07-0.38-0.33-0.62-0.76C87.19,304.06,87.43,304.31,87.63,304.74z"/>
	<path class="st4" d="M57.28,103.05c0.02-0.18,0.2-0.18,0.28-0.18c0.04,0.33-0.01,0.66-0.22,1.03
		C57.21,103.7,57.23,103.46,57.28,103.05z"/>
	<path class="st10" d="M67.74,258.15c-0.24-0.12-0.41-0.43-0.57-0.96C67.38,257.31,67.59,257.63,67.74,258.15z"/>
	<path class="st10" d="M69.74,263.91c-0.26-0.12-0.43-0.44-0.59-0.96C69.38,263.07,69.61,263.39,69.74,263.91z"/>
	<path class="st10" d="M70.22,265.06c-0.22-0.08-0.39-0.36-0.58-0.82C69.84,264.33,70.05,264.6,70.22,265.06z"/>
	<path class="st9" d="M77.21,282.77c-0.26-0.07-0.43-0.31-0.61-0.74C76.83,282.1,77.07,282.34,77.21,282.77z"/>
	<path class="st9" d="M77.69,283.81c-0.23-0.06-0.4-0.31-0.59-0.74C77.31,283.14,77.53,283.38,77.69,283.81z"/>
	<path class="st9" d="M79.7,288.53c-0.27-0.06-0.44-0.31-0.62-0.73C79.32,287.86,79.56,288.1,79.7,288.53z"/>
	<path class="st9" d="M80.19,289.57c-0.26-0.07-0.42-0.31-0.61-0.74C79.81,288.9,80.04,289.15,80.19,289.57z"/>
	<path class="st11" d="M88.15,305.81c-0.25-0.08-0.41-0.33-0.6-0.76C87.77,305.12,88,305.38,88.15,305.81z"/>
	<path class="st9" d="M80.68,290.62c-0.25-0.07-0.42-0.31-0.6-0.74C80.3,289.95,80.54,290.2,80.68,290.62z"/>
	<path class="st9" d="M85.21,300.05c-0.31-0.08-0.48-0.32-0.65-0.74C84.82,299.38,85.08,299.63,85.21,300.05z"/>
	<path class="st9" d="M84.71,299.01c-0.31-0.08-0.48-0.33-0.65-0.75C84.32,298.34,84.58,298.59,84.71,299.01z"/>
	<path class="st9" d="M84.21,297.96c-0.3-0.08-0.47-0.33-0.65-0.75C83.82,297.29,84.08,297.54,84.21,297.96z"/>
	<path class="st9" d="M83.71,296.91c-0.3-0.08-0.46-0.33-0.64-0.75C83.32,296.24,83.58,296.49,83.71,296.91z"/>
	<path class="st9" d="M83.21,295.86c-0.29-0.08-0.46-0.33-0.64-0.75C82.82,295.19,83.07,295.44,83.21,295.86z"/>
	<path class="st9" d="M82.7,294.81c-0.28-0.08-0.45-0.33-0.63-0.75C82.31,294.14,82.56,294.39,82.7,294.81z"/>
	<path class="st9" d="M82.19,293.76c-0.27-0.07-0.43-0.32-0.61-0.75C81.81,293.09,82.05,293.34,82.19,293.76z"/>
	<path class="st9" d="M81.69,292.72c-0.26-0.07-0.43-0.32-0.61-0.75C81.31,292.04,81.54,292.29,81.69,292.72z"/>
	<path class="st9" d="M81.18,291.67c-0.25-0.07-0.41-0.32-0.6-0.74C80.8,291,81.03,291.24,81.18,291.67z"/>
	<path class="st9" d="M85.6,300.59c-0.17,0.1-0.33,0-0.52-0.25C85.23,300.26,85.42,300.32,85.6,300.59z"/>
	<path class="st0" d="M203,542.05c-2.38-0.14-4.63,0.01-6.7-0.57c-4.99-1.4-9.02-4.67-12.68-8.35c-0.78-0.78-1.23-2.62-0.95-3.74
		c1.39-5.73,1.44-11.5,0.95-17.32c-0.04-0.43,0.05-0.86,0.06-1.08c1.65,0.22,3.24,0.6,4.83,0.61c8.29,0.06,16.57,0.02,24.86,0.03
		c3.8,0.01,3.55,0.19,3.38,4.23c-0.17,3.93,0.34,7.94,0.98,11.84c0.49,2.98,0.11,5.15-2.32,7.03
		C211.59,537.67,207.91,540.79,203,542.05z"/>
	<path class="st12" d="M234.77,547.2c-3.95,2.29-7.96,3.23-13.07,2.49c1.84-2.28,3.06-4.59,4.91-5.9c3.31-2.34,6.97-4.13,10.54-6.04
		c1.78-0.95,2.24,0.28,2.14,1.83C239.09,542.87,237.39,545.24,234.77,547.2z"/>
	<path class="st12" d="M167.49,539.52c2.93,2.13,5.77,4.04,8.41,6.24c0.9,0.75,1.27,2.22,1.93,3.46
		c-8.18,2.53-16.89-3.5-16.47-11.75C163.46,538.15,165.39,538.79,167.49,539.52z"/>
</g>
</svg>
